<?xml version="1.0" encoding="UTF-8" standalone="no"?><svg xmlns="http://www.w3.org/2000/svg" xmlns:xlink="http://www.w3.org/1999/xlink" contentScriptType="application/ecmascript" contentStyleType="text/css" height="212px" preserveAspectRatio="none" style="width:302px;height:212px;background:#FFFFFF;" version="1.1" viewBox="0 0 302 212" width="302px" zoomAndPan="magnify"><defs><filter height="300%" id="f1i43ncarb3d89" width="300%" x="-1" y="-1"><feGaussianBlur result="blurOut" stdDeviation="2.0"/><feColorMatrix in="blurOut" result="blurOut2" type="matrix" values="0 0 0 0 0 0 0 0 0 0 0 0 0 0 0 0 0 0 .4 0"/><feOffset dx="4.0" dy="4.0" in="blurOut2" result="blurOut3"/><feBlend in="SourceGraphic" in2="blurOut3" mode="normal"/></filter></defs><g><!--MD5=[8b0a6a03c1cd1174043219a02407d626]
class Пакет--><rect codeLine="12" fill="#FEFECE" filter="url(#f1i43ncarb3d89)" height="23.9688" id="Пакет" style="stroke:#A80036;stroke-width:1.5;" width="47" x="9" y="91"/><text fill="#000000" font-family="sans-serif" font-size="12" lengthAdjust="spacing" textLength="41" x="12" y="107.1387">Пакет</text><!--MD5=[bac4e3e2289867a762eae1c4b9f66a24]
class Ясаучы--><rect codeLine="14" fill="#FEFECE" filter="url(#f1i43ncarb3d89)" height="23.9688" id="Ясаучы" style="stroke:#A80036;stroke-width:1.5;" width="51" x="7" y="7"/><text fill="#000000" font-family="sans-serif" font-size="12" lengthAdjust="spacing" textLength="45" x="10" y="23.1387">Ясаучы</text><!--MD5=[8719af75e38cfa3d1ae6dbfb54ee2238]
class Тәг--><rect codeLine="16" fill="#FEFECE" filter="url(#f1i43ncarb3d89)" height="23.9688" id="Тәг" style="stroke:#A80036;stroke-width:1.5;" width="27" x="19" y="175"/><text fill="#000000" font-family="sans-serif" font-size="12" lengthAdjust="spacing" textLength="21" x="22" y="191.1387">Тәг</text><!--MD5=[ce71a9d68c73cf61cbf71e5bc8450d1a]
class Раунд--><rect codeLine="18" fill="#FEFECE" filter="url(#f1i43ncarb3d89)" height="23.9688" id="Раунд" style="stroke:#A80036;stroke-width:1.5;" width="45" x="91" y="91"/><text fill="#000000" font-family="sans-serif" font-size="12" lengthAdjust="spacing" textLength="39" x="94" y="107.1387">Раунд</text><!--MD5=[5be3839dfccbad98854f943a798f05c1]
class Тема--><rect codeLine="20" fill="#FEFECE" filter="url(#f1i43ncarb3d89)" height="23.9688" id="Тема" style="stroke:#A80036;stroke-width:1.5;" width="38" x="171.5" y="91"/><text fill="#000000" font-family="sans-serif" font-size="12" lengthAdjust="spacing" textLength="32" x="174.5" y="107.1387">Тема</text><!--MD5=[b324a62ff5f841596e09f239d23bfc50]
class Сорау--><rect codeLine="22" fill="#FEFECE" filter="url(#f1i43ncarb3d89)" height="23.9688" id="Сорау" style="stroke:#A80036;stroke-width:1.5;" width="44" x="244.5" y="91"/><text fill="#000000" font-family="sans-serif" font-size="12" lengthAdjust="spacing" textLength="38" x="247.5" y="107.1387">Сорау</text><!--MD5=[e2ecea62e202fd041de7bd1a4c1cc535]
link Ясаучы to Пакет--><path codeLine="24" d="M32.5,39.0352 C32.5,39.0352 32.5,82.9872 32.5,82.9872 " fill="none" id="Ясаучы-Пакет" style="stroke:#A80036;stroke-width:1.0;"/><line style="stroke:#A80036;stroke-width:1.0;" x1="32.5" x2="38.5" y1="82.9872" y2="90.9872"/><line style="stroke:#A80036;stroke-width:1.0;" x1="32.5" x2="26.5" y1="82.9872" y2="90.9872"/><line style="stroke:#A80036;stroke-width:1.0;" x1="32.5" x2="32.5" y1="82.9872" y2="90.9872"/><ellipse cx="32.5" cy="76.9872" rx="4" ry="4" style="stroke:#A80036;stroke-width:1.0;fill:none;"/><line style="stroke:#A80036;stroke-width:1.0;fill:none;" x1="32.5" x2="26.5" y1="39.0352" y2="31.0352"/><line style="stroke:#A80036;stroke-width:1.0;fill:none;" x1="32.5" x2="38.5" y1="39.0352" y2="31.0352"/><line style="stroke:#A80036;stroke-width:1.0;fill:none;" x1="32.5" x2="32.5" y1="39.0352" y2="31.0352"/><line style="stroke:#A80036;stroke-width:1.0;fill:none;" x1="28.5" x2="36.5" y1="41.0352" y2="41.0352"/><!--MD5=[bfb56762a03b37042bf6bdd6e31f5fb8]
link Пакет to Тәг--><path codeLine="25" d="M32.5,123.0352 C32.5,123.0352 32.5,166.9872 32.5,166.9872 " fill="none" id="Пакет-Тәг" style="stroke:#A80036;stroke-width:1.0;"/><line style="stroke:#A80036;stroke-width:1.0;" x1="32.5" x2="38.5" y1="166.9872" y2="174.9872"/><line style="stroke:#A80036;stroke-width:1.0;" x1="32.5" x2="26.5" y1="166.9872" y2="174.9872"/><line style="stroke:#A80036;stroke-width:1.0;" x1="32.5" x2="32.5" y1="166.9872" y2="174.9872"/><ellipse cx="32.5" cy="160.9872" rx="4" ry="4" style="stroke:#A80036;stroke-width:1.0;fill:none;"/><line style="stroke:#A80036;stroke-width:1.0;fill:none;" x1="32.5" x2="26.5" y1="123.0352" y2="115.0352"/><line style="stroke:#A80036;stroke-width:1.0;fill:none;" x1="32.5" x2="38.5" y1="123.0352" y2="115.0352"/><line style="stroke:#A80036;stroke-width:1.0;fill:none;" x1="32.5" x2="32.5" y1="123.0352" y2="115.0352"/><line style="stroke:#A80036;stroke-width:1.0;fill:none;" x1="28.5" x2="36.5" y1="125.0352" y2="125.0352"/><!--MD5=[1ccc6211471372e85ba04d1e3f7d4006]
link Пакет to Раунд--><path codeLine="26" d="M64.3646,103 C64.3646,103 82.9168,103 82.9168,103 " fill="none" id="Пакет-Раунд" style="stroke:#A80036;stroke-width:1.0;"/><line style="stroke:#A80036;stroke-width:1.0;" x1="82.9168" x2="90.9168" y1="103" y2="97"/><line style="stroke:#A80036;stroke-width:1.0;" x1="82.9168" x2="90.9168" y1="103" y2="109"/><line style="stroke:#A80036;stroke-width:1.0;" x1="82.9168" x2="90.9168" y1="103" y2="103"/><ellipse cx="76.9168" cy="103" rx="4" ry="4" style="stroke:#A80036;stroke-width:1.0;fill:none;"/><line style="stroke:#A80036;stroke-width:1.0;fill:none;" x1="60.3646" x2="60.3646" y1="107" y2="99"/><line style="stroke:#A80036;stroke-width:1.0;fill:none;" x1="63.3646" x2="63.3646" y1="107" y2="99"/><line style="stroke:#A80036;stroke-width:1.0;fill:none;" x1="64.3646" x2="56.3646" y1="103" y2="103"/><!--MD5=[78a20f287cdb5a734efb03cd35716247]
link Раунд to Тема--><path codeLine="27" d="M144.1861,103 C144.1861,103 163.355,103 163.355,103 " fill="none" id="Раунд-Тема" style="stroke:#A80036;stroke-width:1.0;"/><line style="stroke:#A80036;stroke-width:1.0;" x1="163.355" x2="171.355" y1="103" y2="97"/><line style="stroke:#A80036;stroke-width:1.0;" x1="163.355" x2="171.355" y1="103" y2="109"/><line style="stroke:#A80036;stroke-width:1.0;" x1="163.355" x2="171.355" y1="103" y2="103"/><ellipse cx="157.355" cy="103" rx="4" ry="4" style="stroke:#A80036;stroke-width:1.0;fill:none;"/><line style="stroke:#A80036;stroke-width:1.0;fill:none;" x1="140.1861" x2="140.1861" y1="107" y2="99"/><line style="stroke:#A80036;stroke-width:1.0;fill:none;" x1="143.1861" x2="143.1861" y1="107" y2="99"/><line style="stroke:#A80036;stroke-width:1.0;fill:none;" x1="144.1861" x2="136.1861" y1="103" y2="103"/><!--MD5=[144c235e5849c13a6440062a09b31245]
link Тема to Сорау--><path codeLine="28" d="M217.678,103 C217.678,103 236.3645,103 236.3645,103 " fill="none" id="Тема-Сорау" style="stroke:#A80036;stroke-width:1.0;"/><line style="stroke:#A80036;stroke-width:1.0;" x1="236.3645" x2="244.3645" y1="103" y2="97"/><line style="stroke:#A80036;stroke-width:1.0;" x1="236.3645" x2="244.3645" y1="103" y2="109"/><line style="stroke:#A80036;stroke-width:1.0;" x1="236.3645" x2="244.3645" y1="103" y2="103"/><ellipse cx="230.3645" cy="103" rx="4" ry="4" style="stroke:#A80036;stroke-width:1.0;fill:none;"/><line style="stroke:#A80036;stroke-width:1.0;fill:none;" x1="213.678" x2="213.678" y1="107" y2="99"/><line style="stroke:#A80036;stroke-width:1.0;fill:none;" x1="216.678" x2="216.678" y1="107" y2="99"/><line style="stroke:#A80036;stroke-width:1.0;fill:none;" x1="217.678" x2="209.678" y1="103" y2="103"/><!--MD5=[b24b04645dce49f74e852355047e1414]
@startuml

!define Table(name) class name as "name"
!define primary_key(x) <b>x</b>
!define unique(x) <color:green>x</color>
!define not_null(x) <u>x</u>
hide methods
hide stereotypes
hide circle
hide empty members
skinparam linetype ortho

Table(Пакет) 

Table(Ясаучы)

Table(Тәг)

Table(Раунд)

Table(Тема)

Table(Сорау)

Ясаучы }|- -o{ Пакет
Пакет }|- -o{ Тәг
Пакет ||-r-o{ Раунд
Раунд ||-r-o{ Тема
Тема ||-r-o{ Сорау

@enduml

@startuml

hide methods
hide stereotypes
hide circle
hide empty members
skinparam linetype ortho

class Пакет as "Пакет" 

class Ясаучы as "Ясаучы"

class Тәг as "Тәг"

class Раунд as "Раунд"

class Тема as "Тема"

class Сорау as "Сорау"

Ясаучы }|- -o{ Пакет
Пакет }|- -o{ Тәг
Пакет ||-r-o{ Раунд
Раунд ||-r-o{ Тема
Тема ||-r-o{ Сорау

@enduml

PlantUML version 1.2021.12(Tue Oct 05 16:01:58 UTC 2021)
(GPL source distribution)
Java Runtime: OpenJDK Runtime Environment
JVM: OpenJDK 64-Bit Server VM
Default Encoding: UTF-8
Language: en
Country: null
--></g></svg>