<?xml version="1.0" encoding="us-ascii" standalone="no"?><svg xmlns="http://www.w3.org/2000/svg" xmlns:xlink="http://www.w3.org/1999/xlink" contentStyleType="text/css" height="211px" preserveAspectRatio="none" style="width:314px;height:211px;background:#FFFFFF;" version="1.1" viewBox="0 0 314 211" width="314px" zoomAndPan="magnify"><defs/><g><!--class ?????--><g id="elem_&#1055;&#1072;&#1082;&#1077;&#1090;"><rect codeLine="12" fill="#F1F1F1" height="26.2969" id="&#1055;&#1072;&#1082;&#1077;&#1090;" rx="2.5" ry="2.5" style="stroke:#181818;stroke-width:0.5;" width="50" x="10.5" y="93"/><text fill="#000000" font-family="sans-serif" font-size="14" lengthAdjust="spacing" textLength="44" x="13.5" y="110.9951">&#1055;&#1072;&#1082;&#1077;&#1090;</text></g><!--class ??????--><g id="elem_&#1071;&#1089;&#1072;&#1091;&#1095;&#1099;"><rect codeLine="14" fill="#F1F1F1" height="26.2969" id="&#1071;&#1089;&#1072;&#1091;&#1095;&#1099;" rx="2.5" ry="2.5" style="stroke:#181818;stroke-width:0.5;" width="57" x="7" y="7"/><text fill="#000000" font-family="sans-serif" font-size="14" lengthAdjust="spacing" textLength="51" x="10" y="24.9951">&#1071;&#1089;&#1072;&#1091;&#1095;&#1099;</text></g><!--class ???--><g id="elem_&#1058;&#1241;&#1075;"><rect codeLine="16" fill="#F1F1F1" height="26.2969" id="&#1058;&#1241;&#1075;" rx="2.5" ry="2.5" style="stroke:#181818;stroke-width:0.5;" width="31" x="20" y="179"/><text fill="#000000" font-family="sans-serif" font-size="14" lengthAdjust="spacing" textLength="25" x="23" y="196.9951">&#1058;&#1241;&#1075;</text></g><!--class ?????--><g id="elem_&#1056;&#1072;&#1091;&#1085;&#1076;"><rect codeLine="18" fill="#F1F1F1" height="26.2969" id="&#1056;&#1072;&#1091;&#1085;&#1076;" rx="2.5" ry="2.5" style="stroke:#181818;stroke-width:0.5;" width="49" x="96" y="93"/><text fill="#000000" font-family="sans-serif" font-size="14" lengthAdjust="spacing" textLength="43" x="99" y="110.9951">&#1056;&#1072;&#1091;&#1085;&#1076;</text></g><!--class ????--><g id="elem_&#1058;&#1077;&#1084;&#1072;"><rect codeLine="20" fill="#F1F1F1" height="26.2969" id="&#1058;&#1077;&#1084;&#1072;" rx="2.5" ry="2.5" style="stroke:#181818;stroke-width:0.5;" width="42" x="180.5" y="93"/><text fill="#000000" font-family="sans-serif" font-size="14" lengthAdjust="spacing" textLength="36" x="183.5" y="110.9951">&#1058;&#1077;&#1084;&#1072;</text></g><!--class ?????--><g id="elem_&#1057;&#1086;&#1088;&#1072;&#1091;"><rect codeLine="22" fill="#F1F1F1" height="26.2969" id="&#1057;&#1086;&#1088;&#1072;&#1091;" rx="2.5" ry="2.5" style="stroke:#181818;stroke-width:0.5;" width="49" x="258" y="93"/><text fill="#000000" font-family="sans-serif" font-size="14" lengthAdjust="spacing" textLength="43" x="261" y="110.9951">&#1057;&#1086;&#1088;&#1072;&#1091;</text></g><!--link ?????? to ?????--><g id="link_&#1071;&#1089;&#1072;&#1091;&#1095;&#1099;_&#1055;&#1072;&#1082;&#1077;&#1090;"><path codeLine="24" d="M35.5,41.06 C35.5,57.23 35.5,58.59 35.5,74.82 " fill="none" id="&#1071;&#1089;&#1072;&#1091;&#1095;&#1099;-&#1055;&#1072;&#1082;&#1077;&#1090;" style="stroke:#181818;stroke-width:1.0;"/><line style="stroke:#181818;stroke-width:1.0;" x1="35.5" x2="29.5" y1="41.06" y2="33.06"/><line style="stroke:#181818;stroke-width:1.0;" x1="35.5" x2="41.5" y1="41.06" y2="33.06"/><line style="stroke:#181818;stroke-width:1.0;" x1="35.5" x2="35.5" y1="41.06" y2="33.06"/><line style="stroke:#181818;stroke-width:1.0;" x1="31.5" x2="39.5" y1="43.06" y2="43.06"/><line style="stroke:#181818;stroke-width:1.0;" x1="35.5" x2="41.5" y1="84.82" y2="92.82"/><line style="stroke:#181818;stroke-width:1.0;" x1="35.5" x2="29.5" y1="84.82" y2="92.82"/><line style="stroke:#181818;stroke-width:1.0;" x1="35.5" x2="35.5" y1="84.82" y2="92.82"/><ellipse cx="35.5" cy="78.82" fill="none" rx="4" ry="4" style="stroke:#181818;stroke-width:1.0;"/></g><!--link ????? to ???--><g id="link_&#1055;&#1072;&#1082;&#1077;&#1090;_&#1058;&#1241;&#1075;"><path codeLine="25" d="M35.5,127.06 C35.5,143.23 35.5,144.59 35.5,160.82 " fill="none" id="&#1055;&#1072;&#1082;&#1077;&#1090;-&#1058;&#1241;&#1075;" style="stroke:#181818;stroke-width:1.0;"/><line style="stroke:#181818;stroke-width:1.0;" x1="35.5" x2="29.5" y1="127.06" y2="119.06"/><line style="stroke:#181818;stroke-width:1.0;" x1="35.5" x2="41.5" y1="127.06" y2="119.06"/><line style="stroke:#181818;stroke-width:1.0;" x1="35.5" x2="35.5" y1="127.06" y2="119.06"/><line style="stroke:#181818;stroke-width:1.0;" x1="31.5" x2="39.5" y1="129.06" y2="129.06"/><line style="stroke:#181818;stroke-width:1.0;" x1="35.5" x2="41.5" y1="170.82" y2="178.82"/><line style="stroke:#181818;stroke-width:1.0;" x1="35.5" x2="29.5" y1="170.82" y2="178.82"/><line style="stroke:#181818;stroke-width:1.0;" x1="35.5" x2="35.5" y1="170.82" y2="178.82"/><ellipse cx="35.5" cy="164.82" fill="none" rx="4" ry="4" style="stroke:#181818;stroke-width:1.0;"/></g><!--link ????? to ?????--><g id="link_&#1055;&#1072;&#1082;&#1077;&#1090;_&#1056;&#1072;&#1091;&#1085;&#1076;"><path codeLine="26" d="M68.54,106 C79.71,106 66.82,106 77.93,106 " fill="none" id="&#1055;&#1072;&#1082;&#1077;&#1090;-&#1056;&#1072;&#1091;&#1085;&#1076;" style="stroke:#181818;stroke-width:1.0;"/><line style="stroke:#181818;stroke-width:1.0;" x1="64.54" x2="64.54" y1="110" y2="102"/><line style="stroke:#181818;stroke-width:1.0;" x1="67.54" x2="67.54" y1="110" y2="102"/><line style="stroke:#181818;stroke-width:1.0;" x1="68.54" x2="60.54" y1="106" y2="106"/><line style="stroke:#181818;stroke-width:1.0;" x1="87.93" x2="95.93" y1="106" y2="100"/><line style="stroke:#181818;stroke-width:1.0;" x1="87.93" x2="95.93" y1="106" y2="112"/><line style="stroke:#181818;stroke-width:1.0;" x1="87.93" x2="95.93" y1="106" y2="106"/><ellipse cx="81.93" cy="106" fill="none" rx="4" ry="4" style="stroke:#181818;stroke-width:1.0;"/></g><!--link ????? to ????--><g id="link_&#1056;&#1072;&#1091;&#1085;&#1076;_&#1058;&#1077;&#1084;&#1072;"><path codeLine="27" d="M153.24,106 C164.5,106 151.69,106 162.46,106 " fill="none" id="&#1056;&#1072;&#1091;&#1085;&#1076;-&#1058;&#1077;&#1084;&#1072;" style="stroke:#181818;stroke-width:1.0;"/><line style="stroke:#181818;stroke-width:1.0;" x1="149.24" x2="149.24" y1="110" y2="102"/><line style="stroke:#181818;stroke-width:1.0;" x1="152.24" x2="152.24" y1="110" y2="102"/><line style="stroke:#181818;stroke-width:1.0;" x1="153.24" x2="145.24" y1="106" y2="106"/><line style="stroke:#181818;stroke-width:1.0;" x1="172.46" x2="180.46" y1="106" y2="100"/><line style="stroke:#181818;stroke-width:1.0;" x1="172.46" x2="180.46" y1="106" y2="112"/><line style="stroke:#181818;stroke-width:1.0;" x1="172.46" x2="180.46" y1="106" y2="106"/><ellipse cx="166.46" cy="106" fill="none" rx="4" ry="4" style="stroke:#181818;stroke-width:1.0;"/></g><!--link ???? to ?????--><g id="link_&#1058;&#1077;&#1084;&#1072;_&#1057;&#1086;&#1088;&#1072;&#1091;"><path codeLine="28" d="M230.78,106 C241.56,106 228.71,106 239.92,106 " fill="none" id="&#1058;&#1077;&#1084;&#1072;-&#1057;&#1086;&#1088;&#1072;&#1091;" style="stroke:#181818;stroke-width:1.0;"/><line style="stroke:#181818;stroke-width:1.0;" x1="226.78" x2="226.78" y1="110" y2="102"/><line style="stroke:#181818;stroke-width:1.0;" x1="229.78" x2="229.78" y1="110" y2="102"/><line style="stroke:#181818;stroke-width:1.0;" x1="230.78" x2="222.78" y1="106" y2="106"/><line style="stroke:#181818;stroke-width:1.0;" x1="249.92" x2="257.92" y1="106" y2="100"/><line style="stroke:#181818;stroke-width:1.0;" x1="249.92" x2="257.92" y1="106" y2="112"/><line style="stroke:#181818;stroke-width:1.0;" x1="249.92" x2="257.92" y1="106" y2="106"/><ellipse cx="243.92" cy="106" fill="none" rx="4" ry="4" style="stroke:#181818;stroke-width:1.0;"/></g><!--SRC=[JOzDJiCm48NtFeNRLRE8sACgfs1VESb0hVeds8dKY23nis312LZnSm4YGJS8ECDON8WuIUFithptUTvuaSCvLq3FM2fWfPY4Y6Q2MKkzfipIfHTBiXZ1md39JBtPGRtQHtIT9llrIPfCUQNuPGLzb6cXpUc50L0UwiS0AbrkL2L4ZrOUg1AovJbG2ULMvtOOR0a6T5aNC1ePDvc0GOCiohhZPGh64hlZgc26IIgw0l-4QjEj8cJu7JvZYrzuS7SHdRntTukjktSFxZ6QpBU_9_m8uuidy0S_PmGUy1lROBpYhxlnN6VDbzBh9exr5Gtb9CWfx0ldGTF4fa-cRX9aICSpo564PBg7_0C0]--></g></svg>