<?xml version="1.0" encoding="us-ascii" standalone="no"?><svg xmlns="http://www.w3.org/2000/svg" xmlns:xlink="http://www.w3.org/1999/xlink" contentStyleType="text/css" height="211px" preserveAspectRatio="none" style="width:361px;height:211px;background:#FFFFFF;" version="1.1" viewBox="0 0 361 211" width="361px" zoomAndPan="magnify"><defs/><g><!--class Package--><g id="elem_Package"><rect codeLine="12" fill="#F1F1F1" height="26.2969" id="Package" rx="2.5" ry="2.5" style="stroke:#181818;stroke-width:0.5;" width="65" x="7" y="93"/><text fill="#000000" font-family="sans-serif" font-size="14" lengthAdjust="spacing" textLength="59" x="10" y="110.9951">Package</text></g><!--class Author--><g id="elem_Author"><rect codeLine="14" fill="#F1F1F1" height="26.2969" id="Author" rx="2.5" ry="2.5" style="stroke:#181818;stroke-width:0.5;" width="52" x="13.5" y="7"/><text fill="#000000" font-family="sans-serif" font-size="14" lengthAdjust="spacing" textLength="46" x="16.5" y="24.9951">Author</text></g><!--class Tag--><g id="elem_Tag"><rect codeLine="16" fill="#F1F1F1" height="26.2969" id="Tag" rx="2.5" ry="2.5" style="stroke:#181818;stroke-width:0.5;" width="32" x="23.5" y="179"/><text fill="#000000" font-family="sans-serif" font-size="14" lengthAdjust="spacing" textLength="26" x="26.5" y="196.9951">Tag</text></g><!--class Round--><g id="elem_Round"><rect codeLine="18" fill="#F1F1F1" height="26.2969" id="Round" rx="2.5" ry="2.5" style="stroke:#181818;stroke-width:0.5;" width="52" x="107.5" y="93"/><text fill="#000000" font-family="sans-serif" font-size="14" lengthAdjust="spacing" textLength="46" x="110.5" y="110.9951">Round</text></g><!--class Theme--><g id="elem_Theme"><rect codeLine="20" fill="#F1F1F1" height="26.2969" id="Theme" rx="2.5" ry="2.5" style="stroke:#181818;stroke-width:0.5;" width="55" x="195" y="93"/><text fill="#000000" font-family="sans-serif" font-size="14" lengthAdjust="spacing" textLength="49" x="198" y="110.9951">Theme</text></g><!--class Question--><g id="elem_Question"><rect codeLine="22" fill="#F1F1F1" height="26.2969" id="Question" rx="2.5" ry="2.5" style="stroke:#181818;stroke-width:0.5;" width="69" x="285" y="93"/><text fill="#000000" font-family="sans-serif" font-size="14" lengthAdjust="spacing" textLength="63" x="288" y="110.9951">Question</text></g><!--link Author to Package--><g id="link_Author_Package"><path codeLine="24" d="M39.5,41.06 C39.5,57.23 39.5,58.59 39.5,74.82 " fill="none" id="Author-Package" style="stroke:#181818;stroke-width:1.0;"/><line style="stroke:#181818;stroke-width:1.0;" x1="39.5" x2="33.5" y1="41.06" y2="33.06"/><line style="stroke:#181818;stroke-width:1.0;" x1="39.5" x2="45.5" y1="41.06" y2="33.06"/><line style="stroke:#181818;stroke-width:1.0;" x1="39.5" x2="39.5" y1="41.06" y2="33.06"/><line style="stroke:#181818;stroke-width:1.0;" x1="35.5" x2="43.5" y1="43.06" y2="43.06"/><line style="stroke:#181818;stroke-width:1.0;" x1="39.5" x2="45.5" y1="84.82" y2="92.82"/><line style="stroke:#181818;stroke-width:1.0;" x1="39.5" x2="33.5" y1="84.82" y2="92.82"/><line style="stroke:#181818;stroke-width:1.0;" x1="39.5" x2="39.5" y1="84.82" y2="92.82"/><ellipse cx="39.5" cy="78.82" fill="none" rx="4" ry="4" style="stroke:#181818;stroke-width:1.0;"/></g><!--link Package to Tag--><g id="link_Package_Tag"><path codeLine="25" d="M39.5,127.06 C39.5,143.23 39.5,144.59 39.5,160.82 " fill="none" id="Package-Tag" style="stroke:#181818;stroke-width:1.0;"/><line style="stroke:#181818;stroke-width:1.0;" x1="39.5" x2="33.5" y1="127.06" y2="119.06"/><line style="stroke:#181818;stroke-width:1.0;" x1="39.5" x2="45.5" y1="127.06" y2="119.06"/><line style="stroke:#181818;stroke-width:1.0;" x1="39.5" x2="39.5" y1="127.06" y2="119.06"/><line style="stroke:#181818;stroke-width:1.0;" x1="35.5" x2="43.5" y1="129.06" y2="129.06"/><line style="stroke:#181818;stroke-width:1.0;" x1="39.5" x2="45.5" y1="170.82" y2="178.82"/><line style="stroke:#181818;stroke-width:1.0;" x1="39.5" x2="33.5" y1="170.82" y2="178.82"/><line style="stroke:#181818;stroke-width:1.0;" x1="39.5" x2="39.5" y1="170.82" y2="178.82"/><ellipse cx="39.5" cy="164.82" fill="none" rx="4" ry="4" style="stroke:#181818;stroke-width:1.0;"/></g><!--link Package to Round--><g id="link_Package_Round"><path codeLine="26" d="M80.11,106 C91.67,106 78.52,106 89.46,106 " fill="none" id="Package-Round" style="stroke:#181818;stroke-width:1.0;"/><line style="stroke:#181818;stroke-width:1.0;" x1="76.11" x2="76.11" y1="110" y2="102"/><line style="stroke:#181818;stroke-width:1.0;" x1="79.11" x2="79.11" y1="110" y2="102"/><line style="stroke:#181818;stroke-width:1.0;" x1="80.11" x2="72.11" y1="106" y2="106"/><line style="stroke:#181818;stroke-width:1.0;" x1="99.46" x2="107.46" y1="106" y2="100"/><line style="stroke:#181818;stroke-width:1.0;" x1="99.46" x2="107.46" y1="106" y2="112"/><line style="stroke:#181818;stroke-width:1.0;" x1="99.46" x2="107.46" y1="106" y2="106"/><ellipse cx="93.46" cy="106" fill="none" rx="4" ry="4" style="stroke:#181818;stroke-width:1.0;"/></g><!--link Round to Theme--><g id="link_Round_Theme"><path codeLine="27" d="M167.72,106 C178.8,106 165.7,106 176.92,106 " fill="none" id="Round-Theme" style="stroke:#181818;stroke-width:1.0;"/><line style="stroke:#181818;stroke-width:1.0;" x1="163.72" x2="163.72" y1="110" y2="102"/><line style="stroke:#181818;stroke-width:1.0;" x1="166.72" x2="166.72" y1="110" y2="102"/><line style="stroke:#181818;stroke-width:1.0;" x1="167.72" x2="159.72" y1="106" y2="106"/><line style="stroke:#181818;stroke-width:1.0;" x1="186.92" x2="194.92" y1="106" y2="100"/><line style="stroke:#181818;stroke-width:1.0;" x1="186.92" x2="194.92" y1="106" y2="112"/><line style="stroke:#181818;stroke-width:1.0;" x1="186.92" x2="194.92" y1="106" y2="106"/><ellipse cx="180.92" cy="106" fill="none" rx="4" ry="4" style="stroke:#181818;stroke-width:1.0;"/></g><!--link Theme to Question--><g id="link_Theme_Question"><path codeLine="28" d="M258.04,106 C268.9,106 255.51,106 266.97,106 " fill="none" id="Theme-Question" style="stroke:#181818;stroke-width:1.0;"/><line style="stroke:#181818;stroke-width:1.0;" x1="254.04" x2="254.04" y1="110" y2="102"/><line style="stroke:#181818;stroke-width:1.0;" x1="257.04" x2="257.04" y1="110" y2="102"/><line style="stroke:#181818;stroke-width:1.0;" x1="258.04" x2="250.04" y1="106" y2="106"/><line style="stroke:#181818;stroke-width:1.0;" x1="276.97" x2="284.97" y1="106" y2="100"/><line style="stroke:#181818;stroke-width:1.0;" x1="276.97" x2="284.97" y1="106" y2="112"/><line style="stroke:#181818;stroke-width:1.0;" x1="276.97" x2="284.97" y1="106" y2="106"/><ellipse cx="270.97" cy="106" fill="none" rx="4" ry="4" style="stroke:#181818;stroke-width:1.0;"/></g><!--SRC=[HL1BRiCW4DrpYabMySBgleeizGPjbNs4yTH6vkCC8CMgU_S2DcG3xySy3QS1VwH1kF5UuSLmZGq8nPs3X84xE2TmPgSZk93KdDRxZElbsS2rxvxNjxwhVZ3o4J1RmYfBxoCXcXJAz1KqrjzDK2f7Gmg4ZaroGD3e9pkudJYFXDQl2nw2a2GKxXZrujUOrpsIOswMPk74DQXOa9w0fJYAiNsxJovcFiO5Y_0HeajDeJS-LlnjWnbUpeJnOmhx2kYyj2OA-mJuszhM_i9Hm8wxo75kbRQjfQJb-IoVLSijB9zLArti7m00]--></g></svg>