<?xml version="1.0" encoding="UTF-8" standalone="no"?><svg xmlns="http://www.w3.org/2000/svg" xmlns:xlink="http://www.w3.org/1999/xlink" contentScriptType="application/ecmascript" contentStyleType="text/css" height="212px" preserveAspectRatio="none" style="width:342px;height:212px;background:#FFFFFF;" version="1.1" viewBox="0 0 342 212" width="342px" zoomAndPan="magnify"><defs><filter height="300%" id="f1h7ul7euufyqx" width="300%" x="-1" y="-1"><feGaussianBlur result="blurOut" stdDeviation="2.0"/><feColorMatrix in="blurOut" result="blurOut2" type="matrix" values="0 0 0 0 0 0 0 0 0 0 0 0 0 0 0 0 0 0 .4 0"/><feOffset dx="4.0" dy="4.0" in="blurOut2" result="blurOut3"/><feBlend in="SourceGraphic" in2="blurOut3" mode="normal"/></filter></defs><g><!--MD5=[4e2ad48a1abc117fdc6f339da0f64213]
class Package--><rect codeLine="12" fill="#FEFECE" filter="url(#f1h7ul7euufyqx)" height="23.9688" id="Package" style="stroke:#A80036;stroke-width:1.5;" width="60" x="7" y="91"/><text fill="#000000" font-family="sans-serif" font-size="12" lengthAdjust="spacing" textLength="54" x="10" y="107.1387">Package</text><!--MD5=[c3f280b58e8dd0683e81b8ec31306a35]
class Author--><rect codeLine="14" fill="#FEFECE" filter="url(#f1h7ul7euufyqx)" height="23.9688" id="Author" style="stroke:#A80036;stroke-width:1.5;" width="48" x="13" y="7"/><text fill="#000000" font-family="sans-serif" font-size="12" lengthAdjust="spacing" textLength="42" x="16" y="23.1387">Author</text><!--MD5=[39d6d2ea03de602dbf4d534e70c872a9]
class Tag--><rect codeLine="16" fill="#FEFECE" filter="url(#f1h7ul7euufyqx)" height="23.9688" id="Tag" style="stroke:#A80036;stroke-width:1.5;" width="29" x="22.5" y="175"/><text fill="#000000" font-family="sans-serif" font-size="12" lengthAdjust="spacing" textLength="23" x="25.5" y="191.1387">Tag</text><!--MD5=[d75b0a238b734941260681f0026bbb88]
class Round--><rect codeLine="18" fill="#FEFECE" filter="url(#f1h7ul7euufyqx)" height="23.9688" id="Round" style="stroke:#A80036;stroke-width:1.5;" width="46" x="102" y="91"/><text fill="#000000" font-family="sans-serif" font-size="12" lengthAdjust="spacing" textLength="40" x="105" y="107.1387">Round</text><!--MD5=[bbad56bc7779fe6d833d77eae0c25c05]
class Theme--><rect codeLine="20" fill="#FEFECE" filter="url(#f1h7ul7euufyqx)" height="23.9688" id="Theme" style="stroke:#A80036;stroke-width:1.5;" width="48" x="183" y="91"/><text fill="#000000" font-family="sans-serif" font-size="12" lengthAdjust="spacing" textLength="42" x="186" y="107.1387">Theme</text><!--MD5=[fc7123defb831ecdd44b2d9bcef6cceb]
class Question--><rect codeLine="22" fill="#FEFECE" filter="url(#f1h7ul7euufyqx)" height="23.9688" id="Question" style="stroke:#A80036;stroke-width:1.5;" width="62" x="266" y="91"/><text fill="#000000" font-family="sans-serif" font-size="12" lengthAdjust="spacing" textLength="56" x="269" y="107.1387">Question</text><!--MD5=[10fe96ad0c464f2922e583150dfa8cc8]
link Author to Package--><path codeLine="24" d="M37,39.0352 C37,39.0352 37,82.9872 37,82.9872 " fill="none" id="Author-Package" style="stroke:#A80036;stroke-width:1.0;"/><line style="stroke:#A80036;stroke-width:1.0;" x1="37" x2="43" y1="82.9872" y2="90.9872"/><line style="stroke:#A80036;stroke-width:1.0;" x1="37" x2="31" y1="82.9872" y2="90.9872"/><line style="stroke:#A80036;stroke-width:1.0;" x1="37" x2="37" y1="82.9872" y2="90.9872"/><ellipse cx="37" cy="76.9872" rx="4" ry="4" style="stroke:#A80036;stroke-width:1.0;fill:none;"/><line style="stroke:#A80036;stroke-width:1.0;fill:none;" x1="37" x2="31" y1="39.0352" y2="31.0352"/><line style="stroke:#A80036;stroke-width:1.0;fill:none;" x1="37" x2="43" y1="39.0352" y2="31.0352"/><line style="stroke:#A80036;stroke-width:1.0;fill:none;" x1="37" x2="37" y1="39.0352" y2="31.0352"/><line style="stroke:#A80036;stroke-width:1.0;fill:none;" x1="33" x2="41" y1="41.0352" y2="41.0352"/><!--MD5=[c7b489f016a6fbe97a9275cc2188e755]
link Package to Tag--><path codeLine="25" d="M37,123.0352 C37,123.0352 37,166.9872 37,166.9872 " fill="none" id="Package-Tag" style="stroke:#A80036;stroke-width:1.0;"/><line style="stroke:#A80036;stroke-width:1.0;" x1="37" x2="43" y1="166.9872" y2="174.9872"/><line style="stroke:#A80036;stroke-width:1.0;" x1="37" x2="31" y1="166.9872" y2="174.9872"/><line style="stroke:#A80036;stroke-width:1.0;" x1="37" x2="37" y1="166.9872" y2="174.9872"/><ellipse cx="37" cy="160.9872" rx="4" ry="4" style="stroke:#A80036;stroke-width:1.0;fill:none;"/><line style="stroke:#A80036;stroke-width:1.0;fill:none;" x1="37" x2="31" y1="123.0352" y2="115.0352"/><line style="stroke:#A80036;stroke-width:1.0;fill:none;" x1="37" x2="43" y1="123.0352" y2="115.0352"/><line style="stroke:#A80036;stroke-width:1.0;fill:none;" x1="37" x2="37" y1="123.0352" y2="115.0352"/><line style="stroke:#A80036;stroke-width:1.0;fill:none;" x1="33" x2="41" y1="125.0352" y2="125.0352"/><!--MD5=[b493148e3169ae5b9cdbe426978024ea]
link Package to Round--><path codeLine="26" d="M75.2846,103 C75.2846,103 93.8898,103 93.8898,103 " fill="none" id="Package-Round" style="stroke:#A80036;stroke-width:1.0;"/><line style="stroke:#A80036;stroke-width:1.0;" x1="93.8898" x2="101.8898" y1="103" y2="97"/><line style="stroke:#A80036;stroke-width:1.0;" x1="93.8898" x2="101.8898" y1="103" y2="109"/><line style="stroke:#A80036;stroke-width:1.0;" x1="93.8898" x2="101.8898" y1="103" y2="103"/><ellipse cx="87.8898" cy="103" rx="4" ry="4" style="stroke:#A80036;stroke-width:1.0;fill:none;"/><line style="stroke:#A80036;stroke-width:1.0;fill:none;" x1="71.2846" x2="71.2846" y1="107" y2="99"/><line style="stroke:#A80036;stroke-width:1.0;fill:none;" x1="74.2846" x2="74.2846" y1="107" y2="99"/><line style="stroke:#A80036;stroke-width:1.0;fill:none;" x1="75.2846" x2="67.2846" y1="103" y2="103"/><!--MD5=[7e32473ce2c234271afdf440d643977c]
link Round to Theme--><path codeLine="27" d="M156.2786,103 C156.2786,103 174.8062,103 174.8062,103 " fill="none" id="Round-Theme" style="stroke:#A80036;stroke-width:1.0;"/><line style="stroke:#A80036;stroke-width:1.0;" x1="174.8062" x2="182.8062" y1="103" y2="97"/><line style="stroke:#A80036;stroke-width:1.0;" x1="174.8062" x2="182.8062" y1="103" y2="109"/><line style="stroke:#A80036;stroke-width:1.0;" x1="174.8062" x2="182.8062" y1="103" y2="103"/><ellipse cx="168.8062" cy="103" rx="4" ry="4" style="stroke:#A80036;stroke-width:1.0;fill:none;"/><line style="stroke:#A80036;stroke-width:1.0;fill:none;" x1="152.2786" x2="152.2786" y1="107" y2="99"/><line style="stroke:#A80036;stroke-width:1.0;fill:none;" x1="155.2786" x2="155.2786" y1="107" y2="99"/><line style="stroke:#A80036;stroke-width:1.0;fill:none;" x1="156.2786" x2="148.2786" y1="103" y2="103"/><!--MD5=[3de1cfd14e7a41ec087be4aeba1202ee]
link Theme to Question--><path codeLine="28" d="M239.1183,103 C239.1183,103 257.6921,103 257.6921,103 " fill="none" id="Theme-Question" style="stroke:#A80036;stroke-width:1.0;"/><line style="stroke:#A80036;stroke-width:1.0;" x1="257.6921" x2="265.6921" y1="103" y2="97"/><line style="stroke:#A80036;stroke-width:1.0;" x1="257.6921" x2="265.6921" y1="103" y2="109"/><line style="stroke:#A80036;stroke-width:1.0;" x1="257.6921" x2="265.6921" y1="103" y2="103"/><ellipse cx="251.6921" cy="103" rx="4" ry="4" style="stroke:#A80036;stroke-width:1.0;fill:none;"/><line style="stroke:#A80036;stroke-width:1.0;fill:none;" x1="235.1183" x2="235.1183" y1="107" y2="99"/><line style="stroke:#A80036;stroke-width:1.0;fill:none;" x1="238.1183" x2="238.1183" y1="107" y2="99"/><line style="stroke:#A80036;stroke-width:1.0;fill:none;" x1="239.1183" x2="231.1183" y1="103" y2="103"/><!--MD5=[e768ac58f196b3c46fd3e007c7d09adb]
@startuml

!define Table(name) class name as "name"
!define primary_key(x) <b>x</b>
!define unique(x) <color:green>x</color>
!define not_null(x) <u>x</u>
hide methods
hide stereotypes
hide circle
hide empty members
skinparam linetype ortho

Table(Package) 

Table(Author)

Table(Tag)

Table(Round)

Table(Theme)

Table(Question)

Author }|- -o{ Package
Package }|- -o{ Tag
Package ||-r-o{ Round
Round ||-r-o{ Theme
Theme ||-r-o{ Question

@enduml

@startuml

hide methods
hide stereotypes
hide circle
hide empty members
skinparam linetype ortho

class Package as "Package" 

class Author as "Author"

class Tag as "Tag"

class Round as "Round"

class Theme as "Theme"

class Question as "Question"

Author }|- -o{ Package
Package }|- -o{ Tag
Package ||-r-o{ Round
Round ||-r-o{ Theme
Theme ||-r-o{ Question

@enduml

PlantUML version 1.2021.12(Tue Oct 05 16:01:58 UTC 2021)
(GPL source distribution)
Java Runtime: OpenJDK Runtime Environment
JVM: OpenJDK 64-Bit Server VM
Default Encoding: UTF-8
Language: en
Country: null
--></g></svg>