<?xml version="1.0" encoding="UTF-8" standalone="no"?><svg xmlns="http://www.w3.org/2000/svg" xmlns:xlink="http://www.w3.org/1999/xlink" contentScriptType="application/ecmascript" contentStyleType="text/css" height="210px" preserveAspectRatio="none" style="width:306px;height:210px;" version="1.1" viewBox="0 0 306 210" width="306px" zoomAndPan="magnify"><defs><filter height="300%" id="fqq52phljnwhs" width="300%" x="-1" y="-1"><feGaussianBlur result="blurOut" stdDeviation="2.0"/><feColorMatrix in="blurOut" result="blurOut2" type="matrix" values="0 0 0 0 0 0 0 0 0 0 0 0 0 0 0 0 0 0 .4 0"/><feOffset dx="4.0" dy="4.0" in="blurOut2" result="blurOut3"/><feBlend in="SourceGraphic" in2="blurOut3" mode="normal"/></filter></defs><g><!--class Пакет--><rect fill="#FEFECE" filter="url(#fqq52phljnwhs)" height="23.9688" id="Пакет" style="stroke: #A80036; stroke-width: 1.5;" width="47" x="6" y="92"/><text fill="#000000" font-family="sans-serif" font-size="12" lengthAdjust="spacingAndGlyphs" textLength="41" x="9" y="108.1387">Пакет</text><!--class Автор--><rect fill="#FEFECE" filter="url(#fqq52phljnwhs)" height="23.9688" id="Автор" style="stroke: #A80036; stroke-width: 1.5;" width="46" x="6.5" y="8"/><text fill="#000000" font-family="sans-serif" font-size="12" lengthAdjust="spacingAndGlyphs" textLength="40" x="9.5" y="24.1387">Автор</text><!--class Тег--><rect fill="#FEFECE" filter="url(#fqq52phljnwhs)" height="23.9688" id="Тег" style="stroke: #A80036; stroke-width: 1.5;" width="28" x="15.5" y="176"/><text fill="#000000" font-family="sans-serif" font-size="12" lengthAdjust="spacingAndGlyphs" textLength="22" x="18.5" y="192.1387">Тег</text><!--class Раунд--><rect fill="#FEFECE" filter="url(#fqq52phljnwhs)" height="23.9688" id="Раунд" style="stroke: #A80036; stroke-width: 1.5;" width="45" x="88" y="92"/><text fill="#000000" font-family="sans-serif" font-size="12" lengthAdjust="spacingAndGlyphs" textLength="39" x="91" y="108.1387">Раунд</text><!--class Тема--><rect fill="#FEFECE" filter="url(#fqq52phljnwhs)" height="23.9688" id="Тема" style="stroke: #A80036; stroke-width: 1.5;" width="38" x="168.5" y="92"/><text fill="#000000" font-family="sans-serif" font-size="12" lengthAdjust="spacingAndGlyphs" textLength="32" x="171.5" y="108.1387">Тема</text><!--class Вопрос--><rect fill="#FEFECE" filter="url(#fqq52phljnwhs)" height="23.9688" id="Вопрос" style="stroke: #A80036; stroke-width: 1.5;" width="53" x="242" y="92"/><text fill="#000000" font-family="sans-serif" font-size="12" lengthAdjust="spacingAndGlyphs" textLength="47" x="245" y="108.1387">Вопрос</text><!--link Автор to Пакет--><path d="M29.5,40.0352 C29.5,40.0352 29.5,83.9872 29.5,83.9872 " fill="none" id="Автор-Пакет" style="stroke: #A80036; stroke-width: 1.0;"/><line style="stroke: #A80036; stroke-width: 1.0;" x1="29.5" x2="35.5" y1="83.9872" y2="91.9872"/><line style="stroke: #A80036; stroke-width: 1.0;" x1="29.5" x2="23.5" y1="83.9872" y2="91.9872"/><line style="stroke: #A80036; stroke-width: 1.0;" x1="29.5" x2="29.5" y1="83.9872" y2="91.9872"/><ellipse cx="29.5" cy="77.9872" fill="none" rx="4" ry="4" style="stroke: #A80036; stroke-width: 1.0;"/><line style="stroke: #A80036; stroke-width: 1.0;" x1="29.5" x2="23.5" y1="40.0352" y2="32.0352"/><line style="stroke: #A80036; stroke-width: 1.0;" x1="29.5" x2="35.5" y1="40.0352" y2="32.0352"/><line style="stroke: #A80036; stroke-width: 1.0;" x1="29.5" x2="29.5" y1="40.0352" y2="32.0352"/><line style="stroke: #A80036; stroke-width: 1.0;" x1="25.5" x2="33.5" y1="42.0352" y2="42.0352"/><!--link Пакет to Тег--><path d="M29.5,124.0352 C29.5,124.0352 29.5,167.9872 29.5,167.9872 " fill="none" id="Пакет-Тег" style="stroke: #A80036; stroke-width: 1.0;"/><line style="stroke: #A80036; stroke-width: 1.0;" x1="29.5" x2="35.5" y1="167.9872" y2="175.9872"/><line style="stroke: #A80036; stroke-width: 1.0;" x1="29.5" x2="23.5" y1="167.9872" y2="175.9872"/><line style="stroke: #A80036; stroke-width: 1.0;" x1="29.5" x2="29.5" y1="167.9872" y2="175.9872"/><ellipse cx="29.5" cy="161.9872" fill="none" rx="4" ry="4" style="stroke: #A80036; stroke-width: 1.0;"/><line style="stroke: #A80036; stroke-width: 1.0;" x1="29.5" x2="23.5" y1="124.0352" y2="116.0352"/><line style="stroke: #A80036; stroke-width: 1.0;" x1="29.5" x2="35.5" y1="124.0352" y2="116.0352"/><line style="stroke: #A80036; stroke-width: 1.0;" x1="29.5" x2="29.5" y1="124.0352" y2="116.0352"/><line style="stroke: #A80036; stroke-width: 1.0;" x1="25.5" x2="33.5" y1="126.0352" y2="126.0352"/><!--link Пакет to Раунд--><path d="M61.3646,104 C61.3646,104 79.9168,104 79.9168,104 " fill="none" id="Пакет-Раунд" style="stroke: #A80036; stroke-width: 1.0;"/><line style="stroke: #A80036; stroke-width: 1.0;" x1="79.9168" x2="87.9168" y1="104" y2="98"/><line style="stroke: #A80036; stroke-width: 1.0;" x1="79.9168" x2="87.9168" y1="104" y2="110"/><line style="stroke: #A80036; stroke-width: 1.0;" x1="79.9168" x2="87.9168" y1="104" y2="104"/><ellipse cx="73.9168" cy="104" fill="none" rx="4" ry="4" style="stroke: #A80036; stroke-width: 1.0;"/><line style="stroke: #A80036; stroke-width: 1.0;" x1="57.3646" x2="57.3646" y1="108" y2="100"/><line style="stroke: #A80036; stroke-width: 1.0;" x1="60.3646" x2="60.3646" y1="108" y2="100"/><line style="stroke: #A80036; stroke-width: 1.0;" x1="61.3646" x2="53.3646" y1="104" y2="104"/><!--link Раунд to Тема--><path d="M141.1861,104 C141.1861,104 160.355,104 160.355,104 " fill="none" id="Раунд-Тема" style="stroke: #A80036; stroke-width: 1.0;"/><line style="stroke: #A80036; stroke-width: 1.0;" x1="160.355" x2="168.355" y1="104" y2="98"/><line style="stroke: #A80036; stroke-width: 1.0;" x1="160.355" x2="168.355" y1="104" y2="110"/><line style="stroke: #A80036; stroke-width: 1.0;" x1="160.355" x2="168.355" y1="104" y2="104"/><ellipse cx="154.355" cy="104" fill="none" rx="4" ry="4" style="stroke: #A80036; stroke-width: 1.0;"/><line style="stroke: #A80036; stroke-width: 1.0;" x1="137.1861" x2="137.1861" y1="108" y2="100"/><line style="stroke: #A80036; stroke-width: 1.0;" x1="140.1861" x2="140.1861" y1="108" y2="100"/><line style="stroke: #A80036; stroke-width: 1.0;" x1="141.1861" x2="133.1861" y1="104" y2="104"/><!--link Тема to Вопрос--><path d="M214.6959,104 C214.6959,104 233.7812,104 233.7812,104 " fill="none" id="Тема-Вопрос" style="stroke: #A80036; stroke-width: 1.0;"/><line style="stroke: #A80036; stroke-width: 1.0;" x1="233.7812" x2="241.7812" y1="104" y2="98"/><line style="stroke: #A80036; stroke-width: 1.0;" x1="233.7812" x2="241.7812" y1="104" y2="110"/><line style="stroke: #A80036; stroke-width: 1.0;" x1="233.7812" x2="241.7812" y1="104" y2="104"/><ellipse cx="227.7812" cy="104" fill="none" rx="4" ry="4" style="stroke: #A80036; stroke-width: 1.0;"/><line style="stroke: #A80036; stroke-width: 1.0;" x1="210.6959" x2="210.6959" y1="108" y2="100"/><line style="stroke: #A80036; stroke-width: 1.0;" x1="213.6959" x2="213.6959" y1="108" y2="100"/><line style="stroke: #A80036; stroke-width: 1.0;" x1="214.6959" x2="206.6959" y1="104" y2="104"/><!--
@startuml

hide methods
hide stereotypes
hide circle
hide empty members
skinparam linetype ortho

class Пакет as "Пакет" 

class Автор as "Автор"

class Тег as "Тег"

class Раунд as "Раунд"

class Тема as "Тема"

class Вопрос as "Вопрос"

Автор }|- -o{ Пакет
Пакет }|- -o{ Тег
Пакет ||-r-o{ Раунд
Раунд ||-r-o{ Тема
Тема ||-r-o{ Вопрос

@enduml

PlantUML version 1.2017.15(Mon Jul 03 16:45:34 UTC 2017)
(GPL source distribution)
Java Runtime: OpenJDK Runtime Environment
JVM: OpenJDK 64-Bit Server VM
Java Version: 1.8.0_292-b10
Operating System: Linux
OS Version: 5.4.0-1055-azure
Default Encoding: UTF-8
Language: en
Country: null
--></g></svg>