<?xml version="1.0" encoding="UTF-8" standalone="no"?><svg xmlns="http://www.w3.org/2000/svg" xmlns:xlink="http://www.w3.org/1999/xlink" contentScriptType="application/ecmascript" contentStyleType="text/css" height="212px" preserveAspectRatio="none" style="width:310px;height:212px;background:#FFFFFF;" version="1.1" viewBox="0 0 310 212" width="310px" zoomAndPan="magnify"><defs><filter height="300%" id="fqq52phljnwhs" width="300%" x="-1" y="-1"><feGaussianBlur result="blurOut" stdDeviation="2.0"/><feColorMatrix in="blurOut" result="blurOut2" type="matrix" values="0 0 0 0 0 0 0 0 0 0 0 0 0 0 0 0 0 0 .4 0"/><feOffset dx="4.0" dy="4.0" in="blurOut2" result="blurOut3"/><feBlend in="SourceGraphic" in2="blurOut3" mode="normal"/></filter></defs><g><!--MD5=[8b0a6a03c1cd1174043219a02407d626]
class Пакет--><rect codeLine="12" fill="#FEFECE" filter="url(#fqq52phljnwhs)" height="23.9688" id="Пакет" style="stroke:#A80036;stroke-width:1.5;" width="47" x="7" y="91"/><text fill="#000000" font-family="sans-serif" font-size="12" lengthAdjust="spacing" textLength="41" x="10" y="107.1387">Пакет</text><!--MD5=[a3ecc110fb85bf2b1f40dd915bd2927f]
class Автор--><rect codeLine="14" fill="#FEFECE" filter="url(#fqq52phljnwhs)" height="23.9688" id="Автор" style="stroke:#A80036;stroke-width:1.5;" width="46" x="7.5" y="7"/><text fill="#000000" font-family="sans-serif" font-size="12" lengthAdjust="spacing" textLength="40" x="10.5" y="23.1387">Автор</text><!--MD5=[ae87da96baa53fdf63b3bda2c2eb4d2d]
class Тег--><rect codeLine="16" fill="#FEFECE" filter="url(#fqq52phljnwhs)" height="23.9688" id="Тег" style="stroke:#A80036;stroke-width:1.5;" width="28" x="16.5" y="175"/><text fill="#000000" font-family="sans-serif" font-size="12" lengthAdjust="spacing" textLength="22" x="19.5" y="191.1387">Тег</text><!--MD5=[ce71a9d68c73cf61cbf71e5bc8450d1a]
class Раунд--><rect codeLine="18" fill="#FEFECE" filter="url(#fqq52phljnwhs)" height="23.9688" id="Раунд" style="stroke:#A80036;stroke-width:1.5;" width="45" x="89" y="91"/><text fill="#000000" font-family="sans-serif" font-size="12" lengthAdjust="spacing" textLength="39" x="92" y="107.1387">Раунд</text><!--MD5=[5be3839dfccbad98854f943a798f05c1]
class Тема--><rect codeLine="20" fill="#FEFECE" filter="url(#fqq52phljnwhs)" height="23.9688" id="Тема" style="stroke:#A80036;stroke-width:1.5;" width="38" x="169.5" y="91"/><text fill="#000000" font-family="sans-serif" font-size="12" lengthAdjust="spacing" textLength="32" x="172.5" y="107.1387">Тема</text><!--MD5=[27e76deae72645aaab8067ecb66cc573]
class Вопрос--><rect codeLine="22" fill="#FEFECE" filter="url(#fqq52phljnwhs)" height="23.9688" id="Вопрос" style="stroke:#A80036;stroke-width:1.5;" width="53" x="243" y="91"/><text fill="#000000" font-family="sans-serif" font-size="12" lengthAdjust="spacing" textLength="47" x="246" y="107.1387">Вопрос</text><!--MD5=[5931749b80979e0e38dccc87dad90f74]
link Автор to Пакет--><path codeLine="24" d="M30.5,39.0352 C30.5,39.0352 30.5,82.9872 30.5,82.9872 " fill="none" id="Автор-Пакет" style="stroke:#A80036;stroke-width:1.0;"/><line style="stroke:#A80036;stroke-width:1.0;" x1="30.5" x2="36.5" y1="82.9872" y2="90.9872"/><line style="stroke:#A80036;stroke-width:1.0;" x1="30.5" x2="24.5" y1="82.9872" y2="90.9872"/><line style="stroke:#A80036;stroke-width:1.0;" x1="30.5" x2="30.5" y1="82.9872" y2="90.9872"/><ellipse cx="30.5" cy="76.9872" rx="4" ry="4" style="stroke:#A80036;stroke-width:1.0;fill:none;"/><line style="stroke:#A80036;stroke-width:1.0;fill:none;" x1="30.5" x2="24.5" y1="39.0352" y2="31.0352"/><line style="stroke:#A80036;stroke-width:1.0;fill:none;" x1="30.5" x2="36.5" y1="39.0352" y2="31.0352"/><line style="stroke:#A80036;stroke-width:1.0;fill:none;" x1="30.5" x2="30.5" y1="39.0352" y2="31.0352"/><line style="stroke:#A80036;stroke-width:1.0;fill:none;" x1="26.5" x2="34.5" y1="41.0352" y2="41.0352"/><!--MD5=[99e1a7b94e05c21b0b2c0a11ce59224e]
link Пакет to Тег--><path codeLine="25" d="M30.5,123.0352 C30.5,123.0352 30.5,166.9872 30.5,166.9872 " fill="none" id="Пакет-Тег" style="stroke:#A80036;stroke-width:1.0;"/><line style="stroke:#A80036;stroke-width:1.0;" x1="30.5" x2="36.5" y1="166.9872" y2="174.9872"/><line style="stroke:#A80036;stroke-width:1.0;" x1="30.5" x2="24.5" y1="166.9872" y2="174.9872"/><line style="stroke:#A80036;stroke-width:1.0;" x1="30.5" x2="30.5" y1="166.9872" y2="174.9872"/><ellipse cx="30.5" cy="160.9872" rx="4" ry="4" style="stroke:#A80036;stroke-width:1.0;fill:none;"/><line style="stroke:#A80036;stroke-width:1.0;fill:none;" x1="30.5" x2="24.5" y1="123.0352" y2="115.0352"/><line style="stroke:#A80036;stroke-width:1.0;fill:none;" x1="30.5" x2="36.5" y1="123.0352" y2="115.0352"/><line style="stroke:#A80036;stroke-width:1.0;fill:none;" x1="30.5" x2="30.5" y1="123.0352" y2="115.0352"/><line style="stroke:#A80036;stroke-width:1.0;fill:none;" x1="26.5" x2="34.5" y1="125.0352" y2="125.0352"/><!--MD5=[1ccc6211471372e85ba04d1e3f7d4006]
link Пакет to Раунд--><path codeLine="26" d="M62.3646,103 C62.3646,103 80.9168,103 80.9168,103 " fill="none" id="Пакет-Раунд" style="stroke:#A80036;stroke-width:1.0;"/><line style="stroke:#A80036;stroke-width:1.0;" x1="80.9168" x2="88.9168" y1="103" y2="97"/><line style="stroke:#A80036;stroke-width:1.0;" x1="80.9168" x2="88.9168" y1="103" y2="109"/><line style="stroke:#A80036;stroke-width:1.0;" x1="80.9168" x2="88.9168" y1="103" y2="103"/><ellipse cx="74.9168" cy="103" rx="4" ry="4" style="stroke:#A80036;stroke-width:1.0;fill:none;"/><line style="stroke:#A80036;stroke-width:1.0;fill:none;" x1="58.3646" x2="58.3646" y1="107" y2="99"/><line style="stroke:#A80036;stroke-width:1.0;fill:none;" x1="61.3646" x2="61.3646" y1="107" y2="99"/><line style="stroke:#A80036;stroke-width:1.0;fill:none;" x1="62.3646" x2="54.3646" y1="103" y2="103"/><!--MD5=[78a20f287cdb5a734efb03cd35716247]
link Раунд to Тема--><path codeLine="27" d="M142.1861,103 C142.1861,103 161.355,103 161.355,103 " fill="none" id="Раунд-Тема" style="stroke:#A80036;stroke-width:1.0;"/><line style="stroke:#A80036;stroke-width:1.0;" x1="161.355" x2="169.355" y1="103" y2="97"/><line style="stroke:#A80036;stroke-width:1.0;" x1="161.355" x2="169.355" y1="103" y2="109"/><line style="stroke:#A80036;stroke-width:1.0;" x1="161.355" x2="169.355" y1="103" y2="103"/><ellipse cx="155.355" cy="103" rx="4" ry="4" style="stroke:#A80036;stroke-width:1.0;fill:none;"/><line style="stroke:#A80036;stroke-width:1.0;fill:none;" x1="138.1861" x2="138.1861" y1="107" y2="99"/><line style="stroke:#A80036;stroke-width:1.0;fill:none;" x1="141.1861" x2="141.1861" y1="107" y2="99"/><line style="stroke:#A80036;stroke-width:1.0;fill:none;" x1="142.1861" x2="134.1861" y1="103" y2="103"/><!--MD5=[1415f78e4e6d4da9fd6430136fb4d68e]
link Тема to Вопрос--><path codeLine="28" d="M215.6959,103 C215.6959,103 234.7812,103 234.7812,103 " fill="none" id="Тема-Вопрос" style="stroke:#A80036;stroke-width:1.0;"/><line style="stroke:#A80036;stroke-width:1.0;" x1="234.7812" x2="242.7812" y1="103" y2="97"/><line style="stroke:#A80036;stroke-width:1.0;" x1="234.7812" x2="242.7812" y1="103" y2="109"/><line style="stroke:#A80036;stroke-width:1.0;" x1="234.7812" x2="242.7812" y1="103" y2="103"/><ellipse cx="228.7812" cy="103" rx="4" ry="4" style="stroke:#A80036;stroke-width:1.0;fill:none;"/><line style="stroke:#A80036;stroke-width:1.0;fill:none;" x1="211.6959" x2="211.6959" y1="107" y2="99"/><line style="stroke:#A80036;stroke-width:1.0;fill:none;" x1="214.6959" x2="214.6959" y1="107" y2="99"/><line style="stroke:#A80036;stroke-width:1.0;fill:none;" x1="215.6959" x2="207.6959" y1="103" y2="103"/><!--MD5=[448ebbdb56231b5c9bd37464ced9b2d7]
@startuml

!define Table(name) class name as "name"
!define primary_key(x) <b>x</b>
!define unique(x) <color:green>x</color>
!define not_null(x) <u>x</u>
hide methods
hide stereotypes
hide circle
hide empty members
skinparam linetype ortho

Table(Пакет) 

Table(Автор)

Table(Тег)

Table(Раунд)

Table(Тема)

Table(Вопрос)

Автор }|- -o{ Пакет
Пакет }|- -o{ Тег
Пакет ||-r-o{ Раунд
Раунд ||-r-o{ Тема
Тема ||-r-o{ Вопрос

@enduml

@startuml

hide methods
hide stereotypes
hide circle
hide empty members
skinparam linetype ortho

class Пакет as "Пакет" 

class Автор as "Автор"

class Тег as "Тег"

class Раунд as "Раунд"

class Тема as "Тема"

class Вопрос as "Вопрос"

Автор }|- -o{ Пакет
Пакет }|- -o{ Тег
Пакет ||-r-o{ Раунд
Раунд ||-r-o{ Тема
Тема ||-r-o{ Вопрос

@enduml

PlantUML version 1.2021.12(Tue Oct 05 16:01:58 UTC 2021)
(GPL source distribution)
Java Runtime: OpenJDK Runtime Environment
JVM: OpenJDK 64-Bit Server VM
Default Encoding: UTF-8
Language: en
Country: null
--></g></svg>