<?xml version="1.0" encoding="us-ascii" standalone="no"?><svg xmlns="http://www.w3.org/2000/svg" xmlns:xlink="http://www.w3.org/1999/xlink" contentStyleType="text/css" height="211px" preserveAspectRatio="none" style="width:321px;height:211px;background:#FFFFFF;" version="1.1" viewBox="0 0 321 211" width="321px" zoomAndPan="magnify"><defs/><g><!--class ?????--><g id="elem_&#1055;&#1072;&#1082;&#1077;&#1090;"><rect codeLine="12" fill="#F1F1F1" height="26.2969" id="&#1055;&#1072;&#1082;&#1077;&#1090;" rx="2.5" ry="2.5" style="stroke:#181818;stroke-width:0.5;" width="50" x="7" y="93"/><text fill="#000000" font-family="sans-serif" font-size="14" lengthAdjust="spacing" textLength="44" x="10" y="110.9951">&#1055;&#1072;&#1082;&#1077;&#1090;</text></g><!--class ?????--><g id="elem_&#1040;&#1074;&#1090;&#1086;&#1088;"><rect codeLine="14" fill="#F1F1F1" height="26.2969" id="&#1040;&#1074;&#1090;&#1086;&#1088;" rx="2.5" ry="2.5" style="stroke:#181818;stroke-width:0.5;" width="50" x="7" y="7"/><text fill="#000000" font-family="sans-serif" font-size="14" lengthAdjust="spacing" textLength="44" x="10" y="24.9951">&#1040;&#1074;&#1090;&#1086;&#1088;</text></g><!--class ???--><g id="elem_&#1058;&#1077;&#1075;"><rect codeLine="16" fill="#F1F1F1" height="26.2969" id="&#1058;&#1077;&#1075;" rx="2.5" ry="2.5" style="stroke:#181818;stroke-width:0.5;" width="31" x="16.5" y="179"/><text fill="#000000" font-family="sans-serif" font-size="14" lengthAdjust="spacing" textLength="25" x="19.5" y="196.9951">&#1058;&#1077;&#1075;</text></g><!--class ?????--><g id="elem_&#1056;&#1072;&#1091;&#1085;&#1076;"><rect codeLine="18" fill="#F1F1F1" height="26.2969" id="&#1056;&#1072;&#1091;&#1085;&#1076;" rx="2.5" ry="2.5" style="stroke:#181818;stroke-width:0.5;" width="49" x="92.5" y="93"/><text fill="#000000" font-family="sans-serif" font-size="14" lengthAdjust="spacing" textLength="43" x="95.5" y="110.9951">&#1056;&#1072;&#1091;&#1085;&#1076;</text></g><!--class ????--><g id="elem_&#1058;&#1077;&#1084;&#1072;"><rect codeLine="20" fill="#F1F1F1" height="26.2969" id="&#1058;&#1077;&#1084;&#1072;" rx="2.5" ry="2.5" style="stroke:#181818;stroke-width:0.5;" width="42" x="177" y="93"/><text fill="#000000" font-family="sans-serif" font-size="14" lengthAdjust="spacing" textLength="36" x="180" y="110.9951">&#1058;&#1077;&#1084;&#1072;</text></g><!--class ??????--><g id="elem_&#1042;&#1086;&#1087;&#1088;&#1086;&#1089;"><rect codeLine="22" fill="#F1F1F1" height="26.2969" id="&#1042;&#1086;&#1087;&#1088;&#1086;&#1089;" rx="2.5" ry="2.5" style="stroke:#181818;stroke-width:0.5;" width="60" x="254" y="93"/><text fill="#000000" font-family="sans-serif" font-size="14" lengthAdjust="spacing" textLength="54" x="257" y="110.9951">&#1042;&#1086;&#1087;&#1088;&#1086;&#1089;</text></g><!--link ????? to ?????--><g id="link_&#1040;&#1074;&#1090;&#1086;&#1088;_&#1055;&#1072;&#1082;&#1077;&#1090;"><path codeLine="24" d="M32,41.06 C32,57.23 32,58.59 32,74.82 " fill="none" id="&#1040;&#1074;&#1090;&#1086;&#1088;-&#1055;&#1072;&#1082;&#1077;&#1090;" style="stroke:#181818;stroke-width:1.0;"/><line style="stroke:#181818;stroke-width:1.0;" x1="32" x2="26" y1="41.06" y2="33.06"/><line style="stroke:#181818;stroke-width:1.0;" x1="32" x2="38" y1="41.06" y2="33.06"/><line style="stroke:#181818;stroke-width:1.0;" x1="32" x2="32" y1="41.06" y2="33.06"/><line style="stroke:#181818;stroke-width:1.0;" x1="28" x2="36" y1="43.06" y2="43.06"/><line style="stroke:#181818;stroke-width:1.0;" x1="32" x2="38" y1="84.82" y2="92.82"/><line style="stroke:#181818;stroke-width:1.0;" x1="32" x2="26" y1="84.82" y2="92.82"/><line style="stroke:#181818;stroke-width:1.0;" x1="32" x2="32" y1="84.82" y2="92.82"/><ellipse cx="32" cy="78.82" fill="none" rx="4" ry="4" style="stroke:#181818;stroke-width:1.0;"/></g><!--link ????? to ???--><g id="link_&#1055;&#1072;&#1082;&#1077;&#1090;_&#1058;&#1077;&#1075;"><path codeLine="25" d="M32,127.06 C32,143.23 32,144.59 32,160.82 " fill="none" id="&#1055;&#1072;&#1082;&#1077;&#1090;-&#1058;&#1077;&#1075;" style="stroke:#181818;stroke-width:1.0;"/><line style="stroke:#181818;stroke-width:1.0;" x1="32" x2="26" y1="127.06" y2="119.06"/><line style="stroke:#181818;stroke-width:1.0;" x1="32" x2="38" y1="127.06" y2="119.06"/><line style="stroke:#181818;stroke-width:1.0;" x1="32" x2="32" y1="127.06" y2="119.06"/><line style="stroke:#181818;stroke-width:1.0;" x1="28" x2="36" y1="129.06" y2="129.06"/><line style="stroke:#181818;stroke-width:1.0;" x1="32" x2="38" y1="170.82" y2="178.82"/><line style="stroke:#181818;stroke-width:1.0;" x1="32" x2="26" y1="170.82" y2="178.82"/><line style="stroke:#181818;stroke-width:1.0;" x1="32" x2="32" y1="170.82" y2="178.82"/><ellipse cx="32" cy="164.82" fill="none" rx="4" ry="4" style="stroke:#181818;stroke-width:1.0;"/></g><!--link ????? to ?????--><g id="link_&#1055;&#1072;&#1082;&#1077;&#1090;_&#1056;&#1072;&#1091;&#1085;&#1076;"><path codeLine="26" d="M65.04,106 C76.21,106 63.32,106 74.43,106 " fill="none" id="&#1055;&#1072;&#1082;&#1077;&#1090;-&#1056;&#1072;&#1091;&#1085;&#1076;" style="stroke:#181818;stroke-width:1.0;"/><line style="stroke:#181818;stroke-width:1.0;" x1="61.04" x2="61.04" y1="110" y2="102"/><line style="stroke:#181818;stroke-width:1.0;" x1="64.04" x2="64.04" y1="110" y2="102"/><line style="stroke:#181818;stroke-width:1.0;" x1="65.04" x2="57.04" y1="106" y2="106"/><line style="stroke:#181818;stroke-width:1.0;" x1="84.43" x2="92.43" y1="106" y2="100"/><line style="stroke:#181818;stroke-width:1.0;" x1="84.43" x2="92.43" y1="106" y2="112"/><line style="stroke:#181818;stroke-width:1.0;" x1="84.43" x2="92.43" y1="106" y2="106"/><ellipse cx="78.43" cy="106" fill="none" rx="4" ry="4" style="stroke:#181818;stroke-width:1.0;"/></g><!--link ????? to ????--><g id="link_&#1056;&#1072;&#1091;&#1085;&#1076;_&#1058;&#1077;&#1084;&#1072;"><path codeLine="27" d="M149.74,106 C161,106 148.19,106 158.96,106 " fill="none" id="&#1056;&#1072;&#1091;&#1085;&#1076;-&#1058;&#1077;&#1084;&#1072;" style="stroke:#181818;stroke-width:1.0;"/><line style="stroke:#181818;stroke-width:1.0;" x1="145.74" x2="145.74" y1="110" y2="102"/><line style="stroke:#181818;stroke-width:1.0;" x1="148.74" x2="148.74" y1="110" y2="102"/><line style="stroke:#181818;stroke-width:1.0;" x1="149.74" x2="141.74" y1="106" y2="106"/><line style="stroke:#181818;stroke-width:1.0;" x1="168.96" x2="176.96" y1="106" y2="100"/><line style="stroke:#181818;stroke-width:1.0;" x1="168.96" x2="176.96" y1="106" y2="112"/><line style="stroke:#181818;stroke-width:1.0;" x1="168.96" x2="176.96" y1="106" y2="106"/><ellipse cx="162.96" cy="106" fill="none" rx="4" ry="4" style="stroke:#181818;stroke-width:1.0;"/></g><!--link ???? to ??????--><g id="link_&#1058;&#1077;&#1084;&#1072;_&#1042;&#1086;&#1087;&#1088;&#1086;&#1089;"><path codeLine="28" d="M227.26,106 C237.7,106 224.47,106 235.9,106 " fill="none" id="&#1058;&#1077;&#1084;&#1072;-&#1042;&#1086;&#1087;&#1088;&#1086;&#1089;" style="stroke:#181818;stroke-width:1.0;"/><line style="stroke:#181818;stroke-width:1.0;" x1="223.26" x2="223.26" y1="110" y2="102"/><line style="stroke:#181818;stroke-width:1.0;" x1="226.26" x2="226.26" y1="110" y2="102"/><line style="stroke:#181818;stroke-width:1.0;" x1="227.26" x2="219.26" y1="106" y2="106"/><line style="stroke:#181818;stroke-width:1.0;" x1="245.9" x2="253.9" y1="106" y2="100"/><line style="stroke:#181818;stroke-width:1.0;" x1="245.9" x2="253.9" y1="106" y2="112"/><line style="stroke:#181818;stroke-width:1.0;" x1="245.9" x2="253.9" y1="106" y2="106"/><ellipse cx="239.9" cy="106" fill="none" rx="4" ry="4" style="stroke:#181818;stroke-width:1.0;"/></g><!--SRC=[LOzDJiCm48NtFiMqgsOHiKTLJi6-SfA1MlLFi1Ef4K4gvGA82u0uGGHqWw1SON8ZyjUuxDwyztdUU9RYjT08LpoMkD1SOG29vCv1fu4xc7TYpcOZc5cXk2rN6omNsm2MSRHTNiJHb1TQt1ROHucHnbxUM4JTGVteGMtobIwaxD6Y0ug8hKMAe31VczGDWylHeidB34SZ4JQHE6XKMLwsl8hHEkOsGcVSSWMoBUYUWB7jAiQ6tz4BrVH5XsOVmEGzqNkpfsEp2oRhZGxquSTNgfj7-g7F_yGtrTvufYFzDhjspqDh-gLmNuMXkGDVpRoSmhxmFAYgqFR9rCsyzEbu1Zi9dvpTm_u0]--></g></svg>