<?xml version="1.0" encoding="us-ascii" standalone="no"?><svg xmlns="http://www.w3.org/2000/svg" xmlns:xlink="http://www.w3.org/1999/xlink" contentStyleType="text/css" height="315px" preserveAspectRatio="none" style="width:632px;height:315px;background:#FFFFFF;" version="1.1" viewBox="0 0 632 315" width="632px" zoomAndPan="magnify"><defs/><g><!--cluster main--><g id="cluster_main"><path d="M234.5,6 L272.5,6 A3.75,3.75 0 0 1 275,8.5 L282,28.2969 L518.5,28.2969 A2.5,2.5 0 0 1 521,30.7969 L521,204.5 A2.5,2.5 0 0 1 518.5,207 L234.5,207 A2.5,2.5 0 0 1 232,204.5 L232,8.5 A2.5,2.5 0 0 1 234.5,6 " fill="#BECEE4" style="stroke:#000000;stroke-width:1.5;"/><line style="stroke:#000000;stroke-width:1.5;" x1="232" x2="282" y1="28.2969" y2="28.2969"/><text fill="#000000" font-family="sans-serif" font-size="14" font-weight="bold" lengthAdjust="spacing" textLength="37" x="236" y="20.9951">main</text></g><!--cluster subcluster--><g id="cluster_subcluster"><path d="M319.5,106 L404.5,106 A3.75,3.75 0 0 1 407,108.5 L414,128.2969 L494.5,128.2969 A2.5,2.5 0 0 1 497,130.7969 L497,180.5 A2.5,2.5 0 0 1 494.5,183 L319.5,183 A2.5,2.5 0 0 1 317,180.5 L317,108.5 A2.5,2.5 0 0 1 319.5,106 " fill="#FFFFFF" style="stroke:#000000;stroke-width:1.5;"/><line style="stroke:#000000;stroke-width:1.5;" x1="317" x2="414" y1="128.2969" y2="128.2969"/><text fill="#000000" font-family="sans-serif" font-size="14" font-weight="bold" lengthAdjust="spacing" textLength="84" x="321" y="120.9951">subcluster</text></g><!--cluster other_library--><g id="cluster_other_library"><path d="M8.5,106 L125.8333,106 A3.75,3.75 0 0 1 128.3333,108.5 L135.3333,128.2969 L205.5,128.2969 A2.5,2.5 0 0 1 208,130.7969 L208,180.5 A2.5,2.5 0 0 1 205.5,183 L8.5,183 A2.5,2.5 0 0 1 6,180.5 L6,108.5 A2.5,2.5 0 0 1 8.5,106 " fill="none" style="stroke:#000000;stroke-width:1.5;"/><line style="stroke:#000000;stroke-width:1.5;" x1="6" x2="135.3333" y1="128.2969" y2="128.2969"/><path d="M12.1667,111.4635 C12.085,111.4635 12.015,111.4752 11.945,111.4985 C11.49,111.5919 11.1283,111.9535 11.035,112.4085 C11,112.4785 11,112.5485 11,112.6302 L11,119.0469 C11,120.0152 11.7817,120.7969 12.75,120.7969 L19.1667,120.7969 L19.1667,119.6302 L12.75,119.6302 C12.4233,119.6302 12.1667,119.3735 12.1667,119.0469 C12.1667,118.7202 12.4233,118.4635 12.75,118.4635 L19.1667,118.4635 L19.1667,112.0469 C19.1667,111.7202 18.91,111.4635 18.5833,111.4635 L18,111.4635 L18,114.9635 L16.8333,113.7969 L15.6667,114.9635 L15.6667,111.4635 L12.1667,111.4635 " fill="#000000" style="stroke:;stroke-width:0.0;stroke-dasharray:;"/><text fill="#000000" font-family="sans-serif" font-size="14" font-weight="bold" lengthAdjust="spacing" textLength="100" x="26.3333" y="120.9951">other_library</text></g><!--cluster other_cluster--><g id="cluster_other_cluster"><path d="M171.5,231 L277.5,231 A3.75,3.75 0 0 1 280,233.5 L287,253.2969 L374.5,253.2969 A2.5,2.5 0 0 1 377,255.7969 L377,305.5 A2.5,2.5 0 0 1 374.5,308 L171.5,308 A2.5,2.5 0 0 1 169,305.5 L169,233.5 A2.5,2.5 0 0 1 171.5,231 " fill="none" style="stroke:#000000;stroke-width:1.5;"/><line style="stroke:#000000;stroke-width:1.5;" x1="169" x2="287" y1="253.2969" y2="253.2969"/><text fill="#000000" font-family="sans-serif" font-size="14" font-weight="bold" lengthAdjust="spacing" textLength="105" x="173" y="245.9951">other_cluster</text></g><!--cluster indirect_cluster--><g id="cluster_indirect_cluster"><path d="M403.5,231 L526.5,231 A3.75,3.75 0 0 1 529,233.5 L536,253.2969 L622.5,253.2969 A2.5,2.5 0 0 1 625,255.7969 L625,305.5 A2.5,2.5 0 0 1 622.5,308 L403.5,308 A2.5,2.5 0 0 1 401,305.5 L401,233.5 A2.5,2.5 0 0 1 403.5,231 " fill="none" style="stroke:#000000;stroke-width:1.5;"/><line style="stroke:#000000;stroke-width:1.5;" x1="401" x2="536" y1="253.2969" y2="253.2969"/><text fill="#000000" font-family="sans-serif" font-size="14" font-weight="bold" lengthAdjust="spacing" textLength="122" x="405" y="245.9951">indirect_cluster</text></g><!--class APPLICATION--><g id="elem_APPLICATION"><rect codeLine="7" fill="#F1F1F1" height="40.2656" id="APPLICATION" rx="2.5" ry="2.5" style="stroke:#181818;stroke-width:0.5;" width="95" x="248.5" y="41"/><text fill="#000000" font-family="sans-serif" font-size="12" font-style="italic" lengthAdjust="spacing" textLength="40" x="276" y="57.1387">&#171;root&#187;</text><text fill="#000000" font-family="sans-serif" font-size="14" lengthAdjust="spacing" textLength="89" x="251.5" y="72.9639">APPLICATION</text></g><!--class DEMO--><g id="elem_DEMO"><rect codeLine="11" fill="#F1F1F1" height="26.2969" id="DEMO" rx="2.5" ry="2.5" style="stroke:#181818;stroke-width:0.5;" width="49" x="248.5" y="141"/><text fill="#000000" font-family="sans-serif" font-size="14" lengthAdjust="spacing" textLength="43" x="251.5" y="158.9951">DEMO</text></g><!--class SUBCLUSTER_DEMO--><g id="elem_SUBCLUSTER_DEMO"><rect codeLine="16" fill="#F1F1F1" height="26.2969" id="SUBCLUSTER_DEMO" rx="2.5" ry="2.5" style="stroke:#181818;stroke-width:0.5;" width="149" x="332.5" y="141"/><text fill="#000000" font-family="sans-serif" font-size="14" lengthAdjust="spacing" textLength="143" x="335.5" y="158.9951">SUBCLUSTER_DEMO</text></g><!--class OTHER_LIBRARY_DEMO--><g id="elem_OTHER_LIBRARY_DEMO"><rect codeLine="21" fill="#F1F1F1" height="26.2969" id="OTHER_LIBRARY_DEMO" rx="2.5" ry="2.5" style="stroke:#181818;stroke-width:0.5;" width="170" x="22" y="141"/><text fill="#000000" font-family="sans-serif" font-size="14" lengthAdjust="spacing" textLength="164" x="25" y="158.9951">OTHER_LIBRARY_DEMO</text></g><!--class OTHER_CLUSTER_DEMO--><g id="elem_OTHER_CLUSTER_DEMO"><rect codeLine="26" fill="#F1F1F1" height="26.2969" id="OTHER_CLUSTER_DEMO" rx="2.5" ry="2.5" style="stroke:#181818;stroke-width:0.5;" width="176" x="185" y="266"/><text fill="#000000" font-family="sans-serif" font-size="14" lengthAdjust="spacing" textLength="170" x="188" y="283.9951">OTHER_CLUSTER_DEMO</text></g><!--class INDIRECT_CLUSTER_DEMO--><g id="elem_INDIRECT_CLUSTER_DEMO"><rect codeLine="30" fill="#F1F1F1" height="26.2969" id="INDIRECT_CLUSTER_DEMO" rx="2.5" ry="2.5" style="stroke:#181818;stroke-width:0.5;" width="192" x="417" y="266"/><text fill="#000000" font-family="sans-serif" font-size="14" lengthAdjust="spacing" textLength="186" x="420" y="283.9951">INDIRECT_CLUSTER_DEMO</text></g><!--reverse link OTHER_LIBRARY_DEMO to DEMO--><g id="link_OTHER_LIBRARY_DEMO_DEMO"><path codeLine="33" d="M198.43,154 C218.93,154 233.23,154 248.32,154 " fill="none" id="OTHER_LIBRARY_DEMO-backto-DEMO" style="stroke:#181818;stroke-width:1.0;stroke-dasharray:7.0,7.0;"/><polygon fill="#181818" points="192.43,154,201.43,158,197.43,154,201.43,150,192.43,154" style="stroke:#181818;stroke-width:1.0;"/></g><!--link APPLICATION to DEMO--><g id="link_APPLICATION_DEMO"><path codeLine="34" d="M273,81.18 C273,99.24 273,119.19 273,134.74 " fill="none" id="APPLICATION-to-DEMO" style="stroke:#181818;stroke-width:1.0;stroke-dasharray:7.0,7.0;"/><polygon fill="#181818" points="273,140.74,277,131.74,273,135.74,269,131.74,273,140.74" style="stroke:#181818;stroke-width:1.0;"/></g><!--link DEMO to SUBCLUSTER_DEMO--><g id="link_DEMO_SUBCLUSTER_DEMO"><path codeLine="35" d="M297.58,154 C307.63,154 313.84,154 326.41,154 " fill="none" id="DEMO-to-SUBCLUSTER_DEMO" style="stroke:#181818;stroke-width:1.0;stroke-dasharray:7.0,7.0;"/><polygon fill="#181818" points="332.41,154,323.41,150,327.41,154,323.41,158,332.41,154" style="stroke:#181818;stroke-width:1.0;"/></g><!--link DEMO to OTHER_CLUSTER_DEMO--><g id="link_DEMO_OTHER_CLUSTER_DEMO"><path codeLine="36" d="M273,167.38 C273,191.44 273,235.73 273,259.72 " fill="none" id="DEMO-to-OTHER_CLUSTER_DEMO" style="stroke:#181818;stroke-width:1.0;stroke-dasharray:7.0,7.0;"/><polygon fill="#181818" points="273,265.72,277,256.72,273,260.72,269,256.72,273,265.72" style="stroke:#181818;stroke-width:1.0;"/></g><!--link OTHER_CLUSTER_DEMO to INDIRECT_CLUSTER_DEMO--><g id="link_OTHER_CLUSTER_DEMO_INDIRECT_CLUSTER_DEMO"><path codeLine="37" d="M361,279 C379.2,279 392.45,279 410.92,279 " fill="none" id="OTHER_CLUSTER_DEMO-to-INDIRECT_CLUSTER_DEMO" style="stroke:#181818;stroke-width:1.0;stroke-dasharray:7.0,7.0;"/><polygon fill="#181818" points="416.92,279,407.92,275,411.92,279,407.92,283,416.92,279" style="stroke:#181818;stroke-width:1.0;"/></g><!--SRC=[XP11YuCm48Nl_egXXJtcj4SHh7MfuDPYxM5F9SO1GwEH93t8ql- -DgvjwWeRXC3alSytJrzusr556n2yHTDt25APMderhn2mwKmF3JObAZsE65TCeEUrj47TKORGKDx2kaI6-0xV7W0JL6i83uSqYS8YoVRW-qfA4mJsUVXkupKAj_5dDdjumlMrPEAg3IfOVzXZfPFtUDf4wUbOnFdvZh64cnjkvR-LKbu2aAP6THQyL5JrAw3wTU84puhTW4kJJHxcNoDsG3hCqJZ5cXjVyhnauMt55JApO4tssoIFe-AF-rukiGqHGMPRa8MaLkzMJwh1zg2ulD_nis4oRzCHLu-VJ-A5RVyJ0543Pbu3MLx-1m00]--></g></svg>