<?xml version="1.0" encoding="UTF-8" standalone="no"?><svg xmlns="http://www.w3.org/2000/svg" xmlns:xlink="http://www.w3.org/1999/xlink" contentScriptType="application/ecmascript" contentStyleType="text/css" height="254px" preserveAspectRatio="none" style="width:522px;height:254px;background:#FFFFFF;" version="1.1" viewBox="0 0 522 254" width="522px" zoomAndPan="magnify"><defs><filter height="300%" id="f9hu3xbbd3s3w" width="300%" x="-1" y="-1"><feGaussianBlur result="blurOut" stdDeviation="2.0"/><feColorMatrix in="blurOut" result="blurOut2" type="matrix" values="0 0 0 0 0 0 0 0 0 0 0 0 0 0 0 0 0 0 .4 0"/><feOffset dx="4.0" dy="4.0" in="blurOut2" result="blurOut3"/><feBlend in="SourceGraphic" in2="blurOut3" mode="normal"/></filter></defs><g><!--MD5=[a70b0d373322012744ecc119c63f921b]
cluster main--><polygon fill="#BECEE4" filter="url(#f9hu3xbbd3s3w)" points="195,6,238,6,245,28.2969,424,28.2969,424,171,195,171,195,6" style="stroke:#000000;stroke-width:1.5;"/><line style="stroke:#000000;stroke-width:1.5;" x1="195" x2="245" y1="28.2969" y2="28.2969"/><text fill="#000000" font-family="sans-serif" font-size="14" font-weight="bold" lengthAdjust="spacing" textLength="37" x="199" y="20.9951">main</text><!--MD5=[5fb7b7a2b62faa4541ad045f049d369b]
cluster main.subcluster--><polygon fill="#FFFFFF" filter="url(#f9hu3xbbd3s3w)" points="272,104,362,104,369,126.2969,416,126.2969,416,163,272,163,272,104" style="stroke:#000000;stroke-width:1.5;"/><line style="stroke:#000000;stroke-width:1.5;" x1="272" x2="369" y1="126.2969" y2="126.2969"/><text fill="#000000" font-family="sans-serif" font-size="14" font-weight="bold" lengthAdjust="spacing" textLength="84" x="276" y="118.9951">subcluster</text><!--MD5=[651f7616e6c5ea9616f9fecdb099d489]
cluster other_library--><polygon fill="#FFFFFF" filter="url(#f9hu3xbbd3s3w)" points="16,104,138.3333,104,145.3333,126.2969,176,126.2969,176,163,16,163,16,104" style="stroke:#000000;stroke-width:1.5;"/><line style="stroke:#000000;stroke-width:1.5;" x1="16" x2="145.3333" y1="126.2969" y2="126.2969"/><path d="M22.1667,109.4635 C22.085,109.4635 22.015,109.4752 21.945,109.4985 C21.49,109.5919 21.1283,109.9535 21.035,110.4085 C21,110.4785 21,110.5485 21,110.6302 L21,117.0469 C21,118.0152 21.7817,118.7969 22.75,118.7969 L29.1667,118.7969 L29.1667,117.6302 L22.75,117.6302 C22.4233,117.6302 22.1667,117.3735 22.1667,117.0469 C22.1667,116.7202 22.4233,116.4635 22.75,116.4635 L29.1667,116.4635 L29.1667,110.0469 C29.1667,109.7202 28.91,109.4635 28.5833,109.4635 L28,109.4635 L28,112.9635 L26.8333,111.7969 L25.6667,112.9635 L25.6667,109.4635 L22.1667,109.4635 " fill="#000000" style="stroke:;stroke-width:0.0;stroke-dasharray:;"/><text fill="#000000" font-family="sans-serif" font-size="14" font-weight="bold" lengthAdjust="spacing" textLength="100" x="36.3333" y="118.9951">other_library</text><!--MD5=[74f3a013d9cade8c94cd96300da4be5f]
cluster other_cluster--><polygon fill="#FFFFFF" filter="url(#f9hu3xbbd3s3w)" points="142,188,253,188,260,210.2969,306,210.2969,306,247,142,247,142,188" style="stroke:#000000;stroke-width:1.5;"/><line style="stroke:#000000;stroke-width:1.5;" x1="142" x2="260" y1="210.2969" y2="210.2969"/><text fill="#000000" font-family="sans-serif" font-size="14" font-weight="bold" lengthAdjust="spacing" textLength="105" x="146" y="202.9951">other_cluster</text><!--MD5=[5c00af370464e47494d477e2e53639d0]
cluster indirect_cluster--><polygon fill="#FFFFFF" filter="url(#f9hu3xbbd3s3w)" points="325,188,453,188,460,210.2969,505,210.2969,505,247,325,247,325,188" style="stroke:#000000;stroke-width:1.5;"/><line style="stroke:#000000;stroke-width:1.5;" x1="325" x2="460" y1="210.2969" y2="210.2969"/><text fill="#000000" font-family="sans-serif" font-size="14" font-weight="bold" lengthAdjust="spacing" textLength="122" x="329" y="202.9951">indirect_cluster</text><!--MD5=[60f6a1765e4200312988df54901ddceb]
class main.APPLICATION--><rect codeLine="7" fill="#FEFECE" filter="url(#f9hu3xbbd3s3w)" height="37.9375" id="main.APPLICATION" style="stroke:#A80036;stroke-width:1.5;" width="83" x="203.5" y="33"/><text fill="#000000" font-family="sans-serif" font-size="12" font-style="italic" lengthAdjust="spacing" textLength="40" x="225" y="49.1387">«root»</text><text fill="#000000" font-family="sans-serif" font-size="12" lengthAdjust="spacing" textLength="77" x="206.5" y="63.1074">APPLICATION</text><!--MD5=[f3e28276126ddc1d3cc1cf1dac85f42e]
class main.DEMO--><rect codeLine="11" fill="#FEFECE" filter="url(#f9hu3xbbd3s3w)" height="23.9688" id="main.DEMO" style="stroke:#A80036;stroke-width:1.5;" width="42" x="203" y="131"/><text fill="#000000" font-family="sans-serif" font-size="12" lengthAdjust="spacing" textLength="36" x="206" y="147.1387">DEMO</text><!--MD5=[19b063d3a2b8ecce1848d692a67aec6b]
class main.subcluster.SUBCLUSTER_DEMO--><rect codeLine="16" fill="#FEFECE" filter="url(#f9hu3xbbd3s3w)" height="23.9688" id="main.subcluster.SUBCLUSTER_DEMO" style="stroke:#A80036;stroke-width:1.5;" width="127" x="280.5" y="131"/><text fill="#000000" font-family="sans-serif" font-size="12" lengthAdjust="spacing" textLength="121" x="283.5" y="147.1387">SUBCLUSTER_DEMO</text><!--MD5=[713196a49ec1bdfa79bfbf3492fc66ce]
class other_library.OTHER_LIBRARY_DEMO--><rect codeLine="21" fill="#FEFECE" filter="url(#f9hu3xbbd3s3w)" height="23.9688" id="other_library.OTHER_LIBRARY_DEMO" style="stroke:#A80036;stroke-width:1.5;" width="143" x="24.5" y="131"/><text fill="#000000" font-family="sans-serif" font-size="12" lengthAdjust="spacing" textLength="137" x="27.5" y="147.1387">OTHER_LIBRARY_DEMO</text><!--MD5=[8eca8135513dadb834203a6f6a9abdbe]
class other_cluster.OTHER_CLUSTER_DEMO--><rect codeLine="26" fill="#FEFECE" filter="url(#f9hu3xbbd3s3w)" height="23.9688" id="other_cluster.OTHER_CLUSTER_DEMO" style="stroke:#A80036;stroke-width:1.5;" width="149" x="149.5" y="215"/><text fill="#000000" font-family="sans-serif" font-size="12" lengthAdjust="spacing" textLength="143" x="152.5" y="231.1387">OTHER_CLUSTER_DEMO</text><!--MD5=[25337c73b7b2ccf93e223d27be458d45]
class indirect_cluster.INDIRECT_CLUSTER_DEMO--><rect codeLine="30" fill="#FEFECE" filter="url(#f9hu3xbbd3s3w)" height="23.9688" id="indirect_cluster.INDIRECT_CLUSTER_DEMO" style="stroke:#A80036;stroke-width:1.5;" width="163" x="333.5" y="215"/><text fill="#000000" font-family="sans-serif" font-size="12" lengthAdjust="spacing" textLength="157" x="336.5" y="231.1387">INDIRECT_CLUSTER_DEMO</text><!--MD5=[82cd47cb062deb88c404027b07a2e927]
reverse link other_library.OTHER_LIBRARY_DEMO to main.DEMO--><path codeLine="33" d="M172.8573,143 C172.8573,143 202.8096,143 202.8096,143 " fill="none" id="other_library.OTHER_LIBRARY_DEMO-backto-main.DEMO" style="stroke:#A80036;stroke-width:1.0;stroke-dasharray:7.0,7.0;"/><polygon fill="#A80036" points="167.8573,143,176.8573,147,172.8573,143,176.8573,139,167.8573,143" style="stroke:#A80036;stroke-width:1.0;"/><!--MD5=[bd3014ada12521d7561391d4e638b662]
link main.APPLICATION to main.DEMO--><path codeLine="34" d="M224.25,71.2988 C224.25,71.2988 224.25,125.9687 224.25,125.9687 " fill="none" id="main.APPLICATION-to-main.DEMO" style="stroke:#A80036;stroke-width:1.0;stroke-dasharray:7.0,7.0;"/><polygon fill="#A80036" points="224.25,130.9687,228.25,121.9687,224.25,125.9687,220.25,121.9687,224.25,130.9687" style="stroke:#A80036;stroke-width:1.0;"/><!--MD5=[179c22c4f62eb94399b6874aa787d585]
link main.DEMO to main.subcluster.SUBCLUSTER_DEMO--><path codeLine="35" d="M245.1774,143 C245.1774,143 275.275,143 275.275,143 " fill="none" id="main.DEMO-to-main.subcluster.SUBCLUSTER_DEMO" style="stroke:#A80036;stroke-width:1.0;stroke-dasharray:7.0,7.0;"/><polygon fill="#A80036" points="280.275,143,271.275,139,275.275,143,271.275,147,280.275,143" style="stroke:#A80036;stroke-width:1.0;"/><!--MD5=[22f74c1d7d66de7c4d8cc90a00a642ce]
link main.DEMO to other_cluster.OTHER_CLUSTER_DEMO--><path codeLine="36" d="M224,155.0352 C224,155.0352 224,209.9872 224,209.9872 " fill="none" id="main.DEMO-to-other_cluster.OTHER_CLUSTER_DEMO" style="stroke:#A80036;stroke-width:1.0;stroke-dasharray:7.0,7.0;"/><polygon fill="#A80036" points="224,214.9872,228,205.9872,224,209.9872,220,205.9872,224,214.9872" style="stroke:#A80036;stroke-width:1.0;"/><!--MD5=[e427ce97033890e2bc64374f94827e66]
link other_cluster.OTHER_CLUSTER_DEMO to indirect_cluster.INDIRECT_CLUSTER_DEMO--><path codeLine="37" d="M298.6662,227 C298.6662,227 328.4356,227 328.4356,227 " fill="none" id="other_cluster.OTHER_CLUSTER_DEMO-to-indirect_cluster.INDIRECT_CLUSTER_DEMO" style="stroke:#A80036;stroke-width:1.0;stroke-dasharray:7.0,7.0;"/><polygon fill="#A80036" points="333.4356,227,324.4356,223,328.4356,227,324.4356,231,333.4356,227" style="stroke:#A80036;stroke-width:1.0;"/><!--MD5=[1284c8af73013a99a901357921610de4]
@startuml

skinparam linetype ortho
hide empty members
hide circle

namespace main #becee4 {
  class APPLICATION <<root>> {
  
  }
  
  class DEMO {
  
  }
  
  namespace subcluster #FFFFFF {
    class SUBCLUSTER_DEMO
  }
}

namespace "<&book> other_library" as other_library {
  class OTHER_LIBRARY_DEMO
}


namespace other_cluster {
  class OTHER_CLUSTER_DEMO
}

namespace indirect_cluster {
  class INDIRECT_CLUSTER_DEMO
}

main.DEMO .l.> other_library.OTHER_LIBRARY_DEMO
main.APPLICATION .d.> main.DEMO
main.DEMO .> main.subcluster.SUBCLUSTER_DEMO
main.DEMO .d.> other_cluster.OTHER_CLUSTER_DEMO
other_cluster.OTHER_CLUSTER_DEMO .r.> indirect_cluster.INDIRECT_CLUSTER_DEMO

@enduml

PlantUML version 1.2021.12(Tue Oct 05 16:01:58 UTC 2021)
(GPL source distribution)
Java Runtime: OpenJDK Runtime Environment
JVM: OpenJDK 64-Bit Server VM
Default Encoding: UTF-8
Language: en
Country: null
--></g></svg>