<?xml version="1.0" encoding="us-ascii" standalone="no"?><svg xmlns="http://www.w3.org/2000/svg" xmlns:xlink="http://www.w3.org/1999/xlink" contentStyleType="text/css" height="315px" preserveAspectRatio="none" style="width:591px;height:315px;background:#FFFFFF;" version="1.1" viewBox="0 0 591 315" width="591px" zoomAndPan="magnify"><defs/><g><!--cluster main--><g id="cluster_main"><path d="M71.5,6 L109.5,6 A3.75,3.75 0 0 1 112,8.5 L119,28.2969 L355.5,28.2969 A2.5,2.5 0 0 1 358,30.7969 L358,204.5 A2.5,2.5 0 0 1 355.5,207 L71.5,207 A2.5,2.5 0 0 1 69,204.5 L69,8.5 A2.5,2.5 0 0 1 71.5,6 " fill="#BECEE4" style="stroke:#000000;stroke-width:1.5;"/><line style="stroke:#000000;stroke-width:1.5;" x1="69" x2="119" y1="28.2969" y2="28.2969"/><text fill="#000000" font-family="sans-serif" font-size="14" font-weight="bold" lengthAdjust="spacing" textLength="37" x="73" y="20.9951">main</text></g><!--cluster subcluster--><g id="cluster_subcluster"><path d="M156.5,106 L241.5,106 A3.75,3.75 0 0 1 244,108.5 L251,128.2969 L331.5,128.2969 A2.5,2.5 0 0 1 334,130.7969 L334,180.5 A2.5,2.5 0 0 1 331.5,183 L156.5,183 A2.5,2.5 0 0 1 154,180.5 L154,108.5 A2.5,2.5 0 0 1 156.5,106 " fill="#FFFFFF" style="stroke:#000000;stroke-width:1.5;"/><line style="stroke:#000000;stroke-width:1.5;" x1="154" x2="251" y1="128.2969" y2="128.2969"/><text fill="#000000" font-family="sans-serif" font-size="14" font-weight="bold" lengthAdjust="spacing" textLength="84" x="158" y="120.9951">subcluster</text></g><!--cluster other_library--><g id="cluster_other_library"><path d="M384.5,106 L501.8333,106 A3.75,3.75 0 0 1 504.3333,108.5 L511.3333,128.2969 L581.5,128.2969 A2.5,2.5 0 0 1 584,130.7969 L584,180.5 A2.5,2.5 0 0 1 581.5,183 L384.5,183 A2.5,2.5 0 0 1 382,180.5 L382,108.5 A2.5,2.5 0 0 1 384.5,106 " fill="none" style="stroke:#000000;stroke-width:1.5;"/><line style="stroke:#000000;stroke-width:1.5;" x1="382" x2="511.3333" y1="128.2969" y2="128.2969"/><path d="M388.1667,111.4635 C388.085,111.4635 388.015,111.4752 387.945,111.4985 C387.49,111.5919 387.1283,111.9535 387.035,112.4085 C387,112.4785 387,112.5485 387,112.6302 L387,119.0469 C387,120.0152 387.7817,120.7969 388.75,120.7969 L395.1667,120.7969 L395.1667,119.6302 L388.75,119.6302 C388.4233,119.6302 388.1667,119.3735 388.1667,119.0469 C388.1667,118.7202 388.4233,118.4635 388.75,118.4635 L395.1667,118.4635 L395.1667,112.0469 C395.1667,111.7202 394.91,111.4635 394.5833,111.4635 L394,111.4635 L394,114.9635 L392.8333,113.7969 L391.6667,114.9635 L391.6667,111.4635 L388.1667,111.4635 " fill="#000000" style="stroke:;stroke-width:0.0;stroke-dasharray:;"/><text fill="#000000" font-family="sans-serif" font-size="14" font-weight="bold" lengthAdjust="spacing" textLength="100" x="402.3333" y="120.9951">other_library</text></g><!--cluster other_cluster--><g id="cluster_other_cluster"><path d="M8.5,231 L114.5,231 A3.75,3.75 0 0 1 117,233.5 L124,253.2969 L211.5,253.2969 A2.5,2.5 0 0 1 214,255.7969 L214,305.5 A2.5,2.5 0 0 1 211.5,308 L8.5,308 A2.5,2.5 0 0 1 6,305.5 L6,233.5 A2.5,2.5 0 0 1 8.5,231 " fill="none" style="stroke:#000000;stroke-width:1.5;"/><line style="stroke:#000000;stroke-width:1.5;" x1="6" x2="124" y1="253.2969" y2="253.2969"/><text fill="#000000" font-family="sans-serif" font-size="14" font-weight="bold" lengthAdjust="spacing" textLength="105" x="10" y="245.9951">other_cluster</text></g><!--cluster indirect_cluster--><g id="cluster_indirect_cluster"><path d="M240.5,231 L363.5,231 A3.75,3.75 0 0 1 366,233.5 L373,253.2969 L459.5,253.2969 A2.5,2.5 0 0 1 462,255.7969 L462,305.5 A2.5,2.5 0 0 1 459.5,308 L240.5,308 A2.5,2.5 0 0 1 238,305.5 L238,233.5 A2.5,2.5 0 0 1 240.5,231 " fill="none" style="stroke:#000000;stroke-width:1.5;"/><line style="stroke:#000000;stroke-width:1.5;" x1="238" x2="373" y1="253.2969" y2="253.2969"/><text fill="#000000" font-family="sans-serif" font-size="14" font-weight="bold" lengthAdjust="spacing" textLength="122" x="242" y="245.9951">indirect_cluster</text></g><!--class APPLICATION--><g id="elem_APPLICATION"><rect codeLine="7" fill="#F1F1F1" height="40.2656" id="APPLICATION" rx="2.5" ry="2.5" style="stroke:#181818;stroke-width:0.5;" width="95" x="85.5" y="41"/><text fill="#000000" font-family="sans-serif" font-size="12" font-style="italic" lengthAdjust="spacing" textLength="40" x="113" y="57.1387">&#171;root&#187;</text><text fill="#000000" font-family="sans-serif" font-size="14" lengthAdjust="spacing" textLength="89" x="88.5" y="72.9639">APPLICATION</text></g><!--class DEMO--><g id="elem_DEMO"><rect codeLine="11" fill="#F1F1F1" height="26.2969" id="DEMO" rx="2.5" ry="2.5" style="stroke:#181818;stroke-width:0.5;" width="49" x="85.5" y="141"/><text fill="#000000" font-family="sans-serif" font-size="14" lengthAdjust="spacing" textLength="43" x="88.5" y="158.9951">DEMO</text></g><!--class SUBCLUSTER_DEMO--><g id="elem_SUBCLUSTER_DEMO"><rect codeLine="16" fill="#F1F1F1" height="26.2969" id="SUBCLUSTER_DEMO" rx="2.5" ry="2.5" style="stroke:#181818;stroke-width:0.5;" width="149" x="169.5" y="141"/><text fill="#000000" font-family="sans-serif" font-size="14" lengthAdjust="spacing" textLength="143" x="172.5" y="158.9951">SUBCLUSTER_DEMO</text></g><!--class OTHER_LIBRARY_DEMO--><g id="elem_OTHER_LIBRARY_DEMO"><rect codeLine="21" fill="#F1F1F1" height="26.2969" id="OTHER_LIBRARY_DEMO" rx="2.5" ry="2.5" style="stroke:#181818;stroke-width:0.5;" width="170" x="398" y="141"/><text fill="#000000" font-family="sans-serif" font-size="14" lengthAdjust="spacing" textLength="164" x="401" y="158.9951">OTHER_LIBRARY_DEMO</text></g><!--class OTHER_CLUSTER_DEMO--><g id="elem_OTHER_CLUSTER_DEMO"><rect codeLine="26" fill="#F1F1F1" height="26.2969" id="OTHER_CLUSTER_DEMO" rx="2.5" ry="2.5" style="stroke:#181818;stroke-width:0.5;" width="176" x="22" y="266"/><text fill="#000000" font-family="sans-serif" font-size="14" lengthAdjust="spacing" textLength="170" x="25" y="283.9951">OTHER_CLUSTER_DEMO</text></g><!--class INDIRECT_CLUSTER_DEMO--><g id="elem_INDIRECT_CLUSTER_DEMO"><rect codeLine="30" fill="#F1F1F1" height="26.2969" id="INDIRECT_CLUSTER_DEMO" rx="2.5" ry="2.5" style="stroke:#181818;stroke-width:0.5;" width="192" x="254" y="266"/><text fill="#000000" font-family="sans-serif" font-size="14" lengthAdjust="spacing" textLength="186" x="257" y="283.9951">INDIRECT_CLUSTER_DEMO</text></g><!--link APPLICATION to DEMO--><g id="link_APPLICATION_DEMO"><path codeLine="33" d="M110,81.18 C110,99.24 110,119.19 110,134.74 " fill="none" id="APPLICATION-to-DEMO" style="stroke:#181818;stroke-width:1.0;stroke-dasharray:7.0,7.0;"/><polygon fill="#181818" points="110,140.74,114,131.74,110,135.74,106,131.74,110,140.74" style="stroke:#181818;stroke-width:1.0;"/></g><!--link DEMO to OTHER_CLUSTER_DEMO--><g id="link_DEMO_OTHER_CLUSTER_DEMO"><path codeLine="34" d="M101.83,167.38 C101.83,191.44 101.83,235.73 101.83,259.72 " fill="none" id="DEMO-to-OTHER_CLUSTER_DEMO" style="stroke:#181818;stroke-width:1.0;stroke-dasharray:7.0,7.0;"/><polygon fill="#181818" points="101.83,265.72,105.83,256.72,101.83,260.72,97.83,256.72,101.83,265.72" style="stroke:#181818;stroke-width:1.0;"/></g><!--link OTHER_CLUSTER_DEMO to INDIRECT_CLUSTER_DEMO--><g id="link_OTHER_CLUSTER_DEMO_INDIRECT_CLUSTER_DEMO"><path codeLine="35" d="M198,279 C216.2,279 229.45,279 247.92,279 " fill="none" id="OTHER_CLUSTER_DEMO-to-INDIRECT_CLUSTER_DEMO" style="stroke:#181818;stroke-width:1.0;stroke-dasharray:7.0,7.0;"/><polygon fill="#181818" points="253.92,279,244.92,275,248.92,279,244.92,283,253.92,279" style="stroke:#181818;stroke-width:1.0;"/></g><!--link DEMO to SUBCLUSTER_DEMO--><g id="link_DEMO_SUBCLUSTER_DEMO"><path codeLine="36" d="M134.58,154 C144.63,154 150.84,154 163.41,154 " fill="none" id="DEMO-to-SUBCLUSTER_DEMO" style="stroke:#181818;stroke-width:1.0;stroke-dasharray:7.0,7.0;"/><polygon fill="#181818" points="169.41,154,160.41,150,164.41,154,160.41,158,169.41,154" style="stroke:#181818;stroke-width:1.0;"/></g><!--reverse link OTHER_LIBRARY_DEMO to DEMO--><g id="link_OTHER_LIBRARY_DEMO_DEMO"><path codeLine="37" d="M422,173.05 C422,191.51 422,217 422,217 C422,217 118.17,217 118.17,217 C118.17,217 118.17,185.51 118.17,167.05 " fill="none" id="OTHER_LIBRARY_DEMO-backto-DEMO" style="stroke:#181818;stroke-width:1.0;stroke-dasharray:7.0,7.0;"/><polygon fill="#181818" points="422,167.05,418,176.05,422,172.05,426,176.05,422,167.05" style="stroke:#181818;stroke-width:1.0;"/></g><!--SRC=[XP51YuCm48Nl_egXXJtcj4SHh7MfuDPYxM5F9SO1GusH93t8ql- -Di6jkiA6G4BclPUF6NtZRKSL5T3m5atV8KXbQkdLl490qPaU18eIbNPFZ2lMeEUrLA3kA4CGbBUmBP4XliEt1y0QgZM4frEQH66HP4VmVIMb2G9R7lR37KwuZp-pHU4LhkybQ-xQe8BjXrrMEdhFbrsKNiv5d5-VCJRXCONR-6-bbBS0fAbHNHjUAghw3L0zVvc0PyLXY4kJNHxcNovsY9naEkE8jJJEU6OilAsuGcPMhCbnd-HnLFnnFvjBfgqa5GbioucL_DvSOOP6Le3-4m1HGyoIbAppJJvN8zLhO6Gvd8cy8Ok9a9Mk_m00]--></g></svg>