<?xml version="1.0" encoding="UTF-8"?>
<svg width="34.832mm" height="24.248mm" version="1.1" viewBox="0 0 34.832 24.248" xmlns="http://www.w3.org/2000/svg"><g transform="translate(-87.584 -136.38)" stroke="#fff"><g transform="translate(59.809 114.21)"><g stroke-width=".26458" aria-label="А"><path d="m57.846 43.49q-0.12418-0.4064-0.28222-0.83538-0.14676-0.42898-0.29351-0.85796h-3.048q-0.14676 0.42898-0.3048 0.85796-0.14676 0.42898-0.27093 0.83538h-1.8288q0.44027-1.2644 0.83538-2.3368 0.39511-1.0724 0.76764-2.0207 0.38382-0.94827 0.74507-1.7949 0.37253-0.85796 0.76764-1.6708h1.682q0.38382 0.8128 0.75636 1.6708 0.37253 0.84667 0.74507 1.7949 0.38382 0.94827 0.77893 2.0207 0.39511 1.0724 0.83538 2.3368zm-2.111-6.0509q-0.05645 0.16933-0.16933 0.46284-0.11289 0.29351-0.25964 0.67733-0.14676 0.38382-0.32738 0.84667-0.16933 0.46284-0.34996 0.97084h2.2239q-0.18062-0.508-0.34996-0.97084-0.16933-0.46284-0.32738-0.84667-0.14676-0.38382-0.25964-0.67733-0.11289-0.29351-0.18062-0.46284z" fill="#fff" stroke="#fff" stroke-width=".26458"/></g><rect x="49.274" y="33.079" width="13" height="13" rx="1" ry="1" fill="none" stroke-dasharray="0.16625, 0.16625000000000001" stroke-linecap="round" stroke-linejoin="round" stroke-width=".665" style="paint-order:normal"/></g><g transform="translate(61.616 111.33)"><g stroke-width=".265" aria-label="Ә"><path d="m34.505 31.334q-0.05644-0.55316-0.22578-0.93698-0.15804-0.38382-0.44027-0.62089-0.27093-0.23707-0.67733-0.33867-0.4064-0.11289-0.95956-0.11289-0.33867 0-0.64347 0.05644-0.29351 0.05645-0.56444 0.13547-0.25964 0.07902-0.47413 0.16933-0.2032 0.07902-0.34996 0.14676l-0.45156-1.3772q0.13547-0.07902 0.38382-0.19191 0.24836-0.11289 0.58702-0.21449t0.74507-0.16933q0.41769-0.07902 0.88053-0.07902 1.0724 0 1.8401 0.31609 0.76764 0.3048 1.2531 0.85796 0.49671 0.54187 0.72249 1.2869 0.22578 0.73378 0.22578 1.5917 0 1.0273-0.27093 1.8062-0.27093 0.76765-0.76765 1.2869-0.48542 0.508-1.1628 0.76764-0.66605 0.24836-1.4676 0.24836-0.77893 0-1.4111-0.24836t-1.0837-0.73378q-0.45156-0.49671-0.69991-1.2305-0.24836-0.73378-0.24836-1.7046 0-0.12418 0.02258-0.34996 0.03387-0.23707 0.05644-0.36124zm-3.4318 1.445q0.06773 0.80151 0.48542 1.2531 0.41769 0.44027 1.1402 0.44027 0.42898 0 0.73378-0.13547 0.31609-0.13547 0.51929-0.36124 0.21449-0.23707 0.32738-0.54187 0.12418-0.3048 0.16933-0.65476z" fill="#fff" stroke="#fff" stroke-width=".265"/></g><rect x="26.3" y="25.382" width="13" height="13" rx="1" ry="1" fill="none" stroke-dasharray="0.16625, 0.16625000000000001" stroke-linecap="round" stroke-linejoin="round" stroke-width=".665" style="paint-order:normal"/></g><g transform="matrix(-.73122 0 0 -.73122 135.73 176.66)" fill="none" stroke-linecap="round" stroke-width="1.1419"><path d="m56.877 33.179c-5.0653-5.2795-10.406-6.3757-18.114-4.2145" stroke-width="1.1419"/><g transform="matrix(-.43101 .44811 -.44811 -.43101 103.52 2.6275)"><path d="m87.415 20-2.4616 6.1291" stroke-width="1.8366"/><path d="m87.415 20 2.9635 5.9028" stroke-width="1.8366"/></g></g><g transform="matrix(.73122 0 0 .73122 74.266 120.34)" fill="none" stroke-linecap="round"><path d="m56.877 33.179c-5.0653-5.2795-10.406-6.3757-18.114-4.2145" stroke-width="1.1419"/><g transform="matrix(-.43101 .44811 -.44811 -.43101 103.52 2.6275)" stroke-width="1.8366"><path d="m87.415 20-2.4616 6.1291"/><path d="m87.415 20 2.9635 5.9028"/></g></g></g></svg>
